<svg width="18" height="13" viewBox="0 0 18 13" fill="none" xmlns="http://www.w3.org/2000/svg">
<path d="M4.46875 7.00781H1.54688L1.53125 5.39844H3.98438C4.41667 5.39844 4.77083 5.34375 5.04688 5.23438C5.32292 5.11979 5.52865 4.95573 5.66406 4.74219C5.80469 4.52344 5.875 4.25781 5.875 3.94531C5.875 3.59115 5.80729 3.30469 5.67188 3.08594C5.54167 2.86719 5.33594 2.70833 5.05469 2.60938C4.77865 2.51042 4.42188 2.46094 3.98438 2.46094H2.35938V12H0.015625V0.625H3.98438C4.64583 0.625 5.23698 0.6875 5.75781 0.8125C6.28385 0.9375 6.72917 1.1276 7.09375 1.38281C7.45833 1.63802 7.73698 1.96094 7.92969 2.35156C8.1224 2.73698 8.21875 3.19531 8.21875 3.72656C8.21875 4.19531 8.11198 4.6276 7.89844 5.02344C7.6901 5.41927 7.35938 5.74219 6.90625 5.99219C6.45833 6.24219 5.8724 6.38021 5.14844 6.40625L4.46875 7.00781ZM4.36719 12H0.90625L1.82031 10.1719H4.36719C4.77865 10.1719 5.11458 10.1068 5.375 9.97656C5.63542 9.84115 5.82812 9.65885 5.95312 9.42969C6.07812 9.20052 6.14062 8.9375 6.14062 8.64062C6.14062 8.30729 6.08333 8.01823 5.96875 7.77344C5.85938 7.52865 5.68229 7.34115 5.4375 7.21094C5.19271 7.07552 4.86979 7.00781 4.46875 7.00781H2.21094L2.22656 5.39844H5.03906L5.57812 6.03125C6.27083 6.02083 6.82812 6.14323 7.25 6.39844C7.67708 6.64844 7.98698 6.97396 8.17969 7.375C8.3776 7.77604 8.47656 8.20573 8.47656 8.66406C8.47656 9.39323 8.31771 10.0078 8 10.5078C7.68229 11.0026 7.21615 11.375 6.60156 11.625C5.99219 11.875 5.2474 12 4.36719 12ZM13.9844 12.1562C13.3281 12.1562 12.7396 12.0521 12.2188 11.8438C11.6979 11.6302 11.2552 11.3359 10.8906 10.9609C10.5312 10.5859 10.2552 10.151 10.0625 9.65625C9.86979 9.15625 9.77344 8.625 9.77344 8.0625V7.75C9.77344 7.10938 9.86458 6.52344 10.0469 5.99219C10.2292 5.46094 10.4896 5 10.8281 4.60938C11.1719 4.21875 11.5885 3.91927 12.0781 3.71094C12.5677 3.4974 13.1198 3.39062 13.7344 3.39062C14.3333 3.39062 14.8646 3.48958 15.3281 3.6875C15.7917 3.88542 16.1797 4.16667 16.4922 4.53125C16.8099 4.89583 17.0495 5.33333 17.2109 5.84375C17.3724 6.34896 17.4531 6.91146 17.4531 7.53125V8.46875H10.7344V6.96875H15.2422V6.79688C15.2422 6.48438 15.1849 6.20573 15.0703 5.96094C14.9609 5.71094 14.7943 5.51302 14.5703 5.36719C14.3464 5.22135 14.0599 5.14844 13.7109 5.14844C13.4141 5.14844 13.1589 5.21354 12.9453 5.34375C12.7318 5.47396 12.5573 5.65625 12.4219 5.89062C12.2917 6.125 12.1927 6.40104 12.125 6.71875C12.0625 7.03125 12.0312 7.375 12.0312 7.75V8.0625C12.0312 8.40104 12.0781 8.71354 12.1719 9C12.2708 9.28646 12.4089 9.53385 12.5859 9.74219C12.7682 9.95052 12.987 10.112 13.2422 10.2266C13.5026 10.3411 13.7969 10.3984 14.125 10.3984C14.5312 10.3984 14.9089 10.3203 15.2578 10.1641C15.612 10.0026 15.9167 9.76042 16.1719 9.4375L17.2656 10.625C17.0885 10.8802 16.8464 11.125 16.5391 11.3594C16.237 11.5938 15.8724 11.7865 15.4453 11.9375C15.0182 12.0833 14.5312 12.1562 13.9844 12.1562Z" fill="white"/>
</svg>
