<svg width="16" height="12" viewBox="0 0 16 12" fill="none" xmlns="http://www.w3.org/2000/svg">
<path d="M3.50781 12H1.03125L1.04688 10.1719H3.50781C4.1224 10.1719 4.64062 10.0339 5.0625 9.75781C5.48438 9.47656 5.80208 9.06771 6.01562 8.53125C6.23438 7.99479 6.34375 7.34635 6.34375 6.58594V6.03125C6.34375 5.44792 6.28125 4.9349 6.15625 4.49219C6.03646 4.04948 5.85677 3.67708 5.61719 3.375C5.3776 3.07292 5.08333 2.84635 4.73438 2.69531C4.38542 2.53906 3.98438 2.46094 3.53125 2.46094H0.984375V0.625H3.53125C4.29167 0.625 4.98698 0.755208 5.61719 1.01562C6.2526 1.27083 6.80208 1.63802 7.26562 2.11719C7.72917 2.59635 8.08594 3.16927 8.33594 3.83594C8.59115 4.4974 8.71875 5.23438 8.71875 6.04688V6.58594C8.71875 7.39323 8.59115 8.13021 8.33594 8.79688C8.08594 9.46354 7.72917 10.0365 7.26562 10.5156C6.80729 10.9896 6.25781 11.3568 5.61719 11.6172C4.98177 11.8724 4.27865 12 3.50781 12ZM2.35938 0.625V12H0.015625V0.625H2.35938ZM12.5312 5.39062V12H10.2812V3.54688H12.3984L12.5312 5.39062ZM15.0781 3.49219L15.0391 5.57812C14.9297 5.5625 14.7969 5.54948 14.6406 5.53906C14.4896 5.52344 14.3516 5.51562 14.2266 5.51562C13.9089 5.51562 13.6328 5.55729 13.3984 5.64062C13.1693 5.71875 12.9766 5.83594 12.8203 5.99219C12.6693 6.14844 12.5547 6.33854 12.4766 6.5625C12.4036 6.78646 12.362 7.04167 12.3516 7.32812L11.8984 7.1875C11.8984 6.64062 11.9531 6.13802 12.0625 5.67969C12.1719 5.21615 12.3307 4.8125 12.5391 4.46875C12.7526 4.125 13.013 3.85938 13.3203 3.67188C13.6276 3.48438 13.9792 3.39062 14.375 3.39062C14.5 3.39062 14.6276 3.40104 14.7578 3.42188C14.888 3.4375 14.9948 3.46094 15.0781 3.49219Z" fill="white"/>
</svg>
