<svg width="1131" height="403" viewBox="0 0 1131 403" fill="none" xmlns="http://www.w3.org/2000/svg">
<g clip-path="url(#clip0_1660_4616)">
<path d="M73 11H1130" stroke="#063B50" stroke-opacity="0.2" stroke-miterlimit="10"/>
<path d="M73 81H1130" stroke="#063B50" stroke-opacity="0.2" stroke-miterlimit="10"/>
<path d="M73 161H1130" stroke="#063B50" stroke-opacity="0.2" stroke-miterlimit="10"/>
<path d="M73 237H1130" stroke="#063B50" stroke-opacity="0.2" stroke-miterlimit="10"/>
<path d="M73 314H1130" stroke="#063B50" stroke-opacity="0.2" stroke-miterlimit="10"/>
<path d="M75.85 361.85L86.35 351.04L116.57 335.63L184.34 288.16L247.58 219.53L302.02 180.51L347.89 157.15L512.67 105.89L618 81.67L771.03 57.69L928.84 30.29L1130.46 10.5V361.85H75.85Z" fill="#84DCFF"/>
<path d="M75.85 361.85L94.39 349.37L119.81 343.79L128.37 338.08L162.11 322.16L179.22 306.95L265.47 238.99L337.24 196.4L452.25 160.58L604.8 118.76L821.99 82.6399L981.91 58.6399L1130.46 43.4299V361.85H75.85Z" fill="#4CC8F9"/>
<path d="M75.85 361.85H1130.46V96.6599L580.33 154.4L324.17 213.81L222.7 282.48L162.82 326.2L138.82 335.23L130.5 340.22L123.05 341.63L119.81 343.79L94.39 349.37L75.85 361.85Z" fill="#149FD6"/>
<path d="M145.24 342.36L210.58 309.33L303.49 258.24L352.92 244.7L599.57 224.74L1130.46 224.97V361.85H75.85" fill="#128CBC"/>
<path d="M75.85 361.85L93.2 353.3L145.24 342.37L165.68 338.57L251.22 289.86L322.51 262.3C322.51 262.3 352.93 256.83 361.72 256.83C370.51 256.83 1130.47 257.54 1130.47 257.54V361.86H75.85V361.85Z" fill="#09729B"/>
<path d="M75.85 361.85C75.85 361.85 141.67 353.53 149.75 352.58C157.83 351.63 165.67 349.73 173.75 346.64C181.83 343.55 290.66 299.59 299.69 295.55C308.72 291.51 355.53 285.09 357.91 285.09C360.29 285.09 1130.46 282.48 1130.46 282.48V361.85H75.85Z" fill="#086589"/>
<path d="M75.85 361.85C75.85 361.85 153.08 359.95 162.11 359C171.14 358.05 237.2 348.54 253.12 347.36C269.04 346.18 354.82 339.99 372.64 339.99C390.46 339.99 589.11 338.09 618.82 338.09C648.53 338.09 870.46 336.9 885.91 336.9H1130.46V361.85H75.85Z" fill="#063B50"/>
</g>
<path d="M11.304 389.188C11.9013 389.188 12.4333 389.314 12.9 389.566C13.3667 389.809 13.7353 390.177 14.006 390.672C14.2767 391.167 14.412 391.769 14.412 392.478V397H13.152V392.66C13.152 391.895 12.9607 391.311 12.578 390.91C12.2047 390.499 11.696 390.294 11.052 390.294C10.3893 390.294 9.862 390.509 9.47 390.938C9.078 391.358 8.882 391.969 8.882 392.772V397H7.622V392.66C7.622 391.895 7.43067 391.311 7.048 390.91C6.67467 390.499 6.166 390.294 5.522 390.294C4.85933 390.294 4.332 390.509 3.94 390.938C3.548 391.358 3.352 391.969 3.352 392.772V397H2.078V389.328H3.352V390.434C3.604 390.033 3.94 389.725 4.36 389.51C4.78933 389.295 5.26067 389.188 5.774 389.188C6.418 389.188 6.98733 389.333 7.482 389.622C7.97667 389.911 8.34533 390.336 8.588 390.896C8.80267 390.355 9.15733 389.935 9.652 389.636C10.1467 389.337 10.6973 389.188 11.304 389.188ZM19.8478 397.126C19.1292 397.126 18.4758 396.963 17.8878 396.636C17.3092 396.309 16.8518 395.847 16.5158 395.25C16.1892 394.643 16.0258 393.943 16.0258 393.15C16.0258 392.366 16.1938 391.675 16.5298 391.078C16.8752 390.471 17.3418 390.009 17.9298 389.692C18.5178 389.365 19.1758 389.202 19.9038 389.202C20.6318 389.202 21.2898 389.365 21.8778 389.692C22.4658 390.009 22.9278 390.467 23.2638 391.064C23.6092 391.661 23.7818 392.357 23.7818 393.15C23.7818 393.943 23.6045 394.643 23.2498 395.25C22.9045 395.847 22.4332 396.309 21.8358 396.636C21.2385 396.963 20.5758 397.126 19.8478 397.126ZM19.8478 396.006C20.3052 396.006 20.7345 395.899 21.1358 395.684C21.5372 395.469 21.8592 395.147 22.1018 394.718C22.3538 394.289 22.4798 393.766 22.4798 393.15C22.4798 392.534 22.3585 392.011 22.1158 391.582C21.8732 391.153 21.5558 390.835 21.1638 390.63C20.7718 390.415 20.3472 390.308 19.8898 390.308C19.4232 390.308 18.9938 390.415 18.6018 390.63C18.2192 390.835 17.9112 391.153 17.6778 391.582C17.4445 392.011 17.3278 392.534 17.3278 393.15C17.3278 393.775 17.4398 394.303 17.6638 394.732C17.8972 395.161 18.2052 395.483 18.5878 395.698C18.9705 395.903 19.3905 396.006 19.8478 396.006ZM29.1949 389.188C30.1282 389.188 30.8842 389.473 31.4629 390.042C32.0416 390.602 32.3309 391.414 32.3309 392.478V397H31.0709V392.66C31.0709 391.895 30.8796 391.311 30.4969 390.91C30.1142 390.499 29.5916 390.294 28.9289 390.294C28.2569 390.294 27.7202 390.504 27.3189 390.924C26.9269 391.344 26.7309 391.955 26.7309 392.758V397H25.4569V389.328H26.7309V390.42C26.9829 390.028 27.3236 389.725 27.7529 389.51C28.1916 389.295 28.6722 389.188 29.1949 389.188ZM35.966 390.378V394.9C35.966 395.273 36.0453 395.539 36.204 395.698C36.3627 395.847 36.638 395.922 37.03 395.922H37.968V397H36.82C36.1107 397 35.5787 396.837 35.224 396.51C34.8693 396.183 34.692 395.647 34.692 394.9V390.378H33.698V389.328H34.692V387.396H35.966V389.328H37.968V390.378H35.966ZM43.3196 389.188C43.8983 389.188 44.4209 389.314 44.8876 389.566C45.3543 389.809 45.7183 390.177 45.9796 390.672C46.2503 391.167 46.3856 391.769 46.3856 392.478V397H45.1256V392.66C45.1256 391.895 44.9343 391.311 44.5516 390.91C44.1689 390.499 43.6463 390.294 42.9836 390.294C42.3116 390.294 41.7749 390.504 41.3736 390.924C40.9816 391.344 40.7856 391.955 40.7856 392.758V397H39.5116V386.64H40.7856V390.42C41.0376 390.028 41.3829 389.725 41.8216 389.51C42.2696 389.295 42.7689 389.188 43.3196 389.188ZM51.6531 388.04V386.878H54.2851V397H52.9971V388.04H51.6531Z" fill="#063B50" fill-opacity="0.4"/>
<path d="M0.714 318.978C1.89933 318.026 2.828 317.247 3.5 316.64C4.172 316.024 4.73667 315.385 5.194 314.722C5.66067 314.05 5.894 313.392 5.894 312.748C5.894 312.141 5.74467 311.665 5.446 311.32C5.15667 310.965 4.68533 310.788 4.032 310.788C3.39733 310.788 2.90267 310.989 2.548 311.39C2.20267 311.782 2.016 312.309 1.988 312.972H0.756C0.793333 311.927 1.11067 311.119 1.708 310.55C2.30533 309.981 3.07533 309.696 4.018 309.696C4.97933 309.696 5.74 309.962 6.3 310.494C6.86933 311.026 7.154 311.759 7.154 312.692C7.154 313.467 6.92067 314.223 6.454 314.96C5.99667 315.688 5.474 316.332 4.886 316.892C4.298 317.443 3.54667 318.087 2.632 318.824H7.448V319.888H0.714V318.978ZM8.92073 314.834C8.92073 313.229 9.18207 311.978 9.70473 311.082C10.2274 310.177 11.1421 309.724 12.4487 309.724C13.7461 309.724 14.6561 310.177 15.1787 311.082C15.7014 311.978 15.9627 313.229 15.9627 314.834C15.9627 316.467 15.7014 317.737 15.1787 318.642C14.6561 319.547 13.7461 320 12.4487 320C11.1421 320 10.2274 319.547 9.70473 318.642C9.18207 317.737 8.92073 316.467 8.92073 314.834ZM14.7027 314.834C14.7027 314.022 14.6467 313.336 14.5347 312.776C14.4321 312.207 14.2127 311.749 13.8767 311.404C13.5501 311.059 13.0741 310.886 12.4487 310.886C11.8141 310.886 11.3287 311.059 10.9927 311.404C10.6661 311.749 10.4467 312.207 10.3347 312.776C10.2321 313.336 10.1807 314.022 10.1807 314.834C10.1807 315.674 10.2321 316.379 10.3347 316.948C10.4467 317.517 10.6661 317.975 10.9927 318.32C11.3287 318.665 11.8141 318.838 12.4487 318.838C13.0741 318.838 13.5501 318.665 13.8767 318.32C14.2127 317.975 14.4321 317.517 14.5347 316.948C14.6467 316.379 14.7027 315.674 14.7027 314.834ZM17.7118 314.834C17.7118 313.229 17.9731 311.978 18.4958 311.082C19.0184 310.177 19.9331 309.724 21.2398 309.724C22.5371 309.724 23.4471 310.177 23.9698 311.082C24.4924 311.978 24.7537 313.229 24.7537 314.834C24.7537 316.467 24.4924 317.737 23.9698 318.642C23.4471 319.547 22.5371 320 21.2398 320C19.9331 320 19.0184 319.547 18.4958 318.642C17.9731 317.737 17.7118 316.467 17.7118 314.834ZM23.4938 314.834C23.4938 314.022 23.4378 313.336 23.3258 312.776C23.2231 312.207 23.0038 311.749 22.6678 311.404C22.3411 311.059 21.8651 310.886 21.2398 310.886C20.6051 310.886 20.1198 311.059 19.7838 311.404C19.4571 311.749 19.2378 312.207 19.1258 312.776C19.0231 313.336 18.9718 314.022 18.9718 314.834C18.9718 315.674 19.0231 316.379 19.1258 316.948C19.2378 317.517 19.4571 317.975 19.7838 318.32C20.1198 318.665 20.6051 318.838 21.2398 318.838C21.8651 318.838 22.3411 318.665 22.6678 318.32C23.0038 317.975 23.2231 317.517 23.3258 316.948C23.4378 316.379 23.4938 315.674 23.4938 314.834ZM31.5988 314.974C31.9534 315.03 32.2754 315.175 32.5648 315.408C32.8634 315.641 33.0968 315.931 33.2648 316.276C33.4421 316.621 33.5308 316.99 33.5308 317.382C33.5308 317.877 33.4048 318.325 33.1528 318.726C32.9008 319.118 32.5321 319.431 32.0468 319.664C31.5708 319.888 31.0061 320 30.3528 320H26.7128V310.242H30.2128C30.8754 310.242 31.4401 310.354 31.9068 310.578C32.3734 310.793 32.7234 311.087 32.9568 311.46C33.1901 311.833 33.3068 312.253 33.3068 312.72C33.3068 313.299 33.1481 313.779 32.8308 314.162C32.5228 314.535 32.1121 314.806 31.5988 314.974ZM27.9868 314.456H30.1288C30.7261 314.456 31.1881 314.316 31.5148 314.036C31.8414 313.756 32.0048 313.369 32.0048 312.874C32.0048 312.379 31.8414 311.992 31.5148 311.712C31.1881 311.432 30.7168 311.292 30.1008 311.292H27.9868V314.456ZM30.2408 318.95C30.8754 318.95 31.3701 318.801 31.7248 318.502C32.0794 318.203 32.2568 317.788 32.2568 317.256C32.2568 316.715 32.0701 316.29 31.6968 315.982C31.3234 315.665 30.8241 315.506 30.1988 315.506H27.9868V318.95H30.2408Z" fill="#063B50" fill-opacity="0.4"/>
<path d="M1.56 241.746V240.78L6.474 233.976H8V240.64H9.4V241.746H8V244H6.74V241.746H1.56ZM6.796 235.306L3.03 240.64H6.796V235.306ZM10.6727 238.834C10.6727 237.229 10.934 235.978 11.4567 235.082C11.9794 234.177 12.894 233.724 14.2007 233.724C15.498 233.724 16.408 234.177 16.9307 235.082C17.4534 235.978 17.7147 237.229 17.7147 238.834C17.7147 240.467 17.4534 241.737 16.9307 242.642C16.408 243.547 15.498 244 14.2007 244C12.894 244 11.9794 243.547 11.4567 242.642C10.934 241.737 10.6727 240.467 10.6727 238.834ZM16.4547 238.834C16.4547 238.022 16.3987 237.336 16.2867 236.776C16.184 236.207 15.9647 235.749 15.6287 235.404C15.302 235.059 14.826 234.886 14.2007 234.886C13.566 234.886 13.0807 235.059 12.7447 235.404C12.418 235.749 12.1987 236.207 12.0867 236.776C11.984 237.336 11.9327 238.022 11.9327 238.834C11.9327 239.674 11.984 240.379 12.0867 240.948C12.1987 241.517 12.418 241.975 12.7447 242.32C13.0807 242.665 13.566 242.838 14.2007 242.838C14.826 242.838 15.302 242.665 15.6287 242.32C15.9647 241.975 16.184 241.517 16.2867 240.948C16.3987 240.379 16.4547 239.674 16.4547 238.834ZM19.4637 238.834C19.4637 237.229 19.725 235.978 20.2477 235.082C20.7704 234.177 21.685 233.724 22.9917 233.724C24.289 233.724 25.199 234.177 25.7217 235.082C26.2444 235.978 26.5057 237.229 26.5057 238.834C26.5057 240.467 26.2444 241.737 25.7217 242.642C25.199 243.547 24.289 244 22.9917 244C21.685 244 20.7704 243.547 20.2477 242.642C19.725 241.737 19.4637 240.467 19.4637 238.834ZM25.2457 238.834C25.2457 238.022 25.1897 237.336 25.0777 236.776C24.975 236.207 24.7557 235.749 24.4197 235.404C24.093 235.059 23.617 234.886 22.9917 234.886C22.357 234.886 21.8717 235.059 21.5357 235.404C21.209 235.749 20.9897 236.207 20.8777 236.776C20.775 237.336 20.7237 238.022 20.7237 238.834C20.7237 239.674 20.775 240.379 20.8777 240.948C20.9897 241.517 21.209 241.975 21.5357 242.32C21.8717 242.665 22.357 242.838 22.9917 242.838C23.617 242.838 24.093 242.665 24.4197 242.32C24.7557 241.975 24.975 241.517 25.0777 240.948C25.1897 240.379 25.2457 239.674 25.2457 238.834ZM33.3507 238.974C33.7054 239.03 34.0274 239.175 34.3167 239.408C34.6154 239.641 34.8487 239.931 35.0167 240.276C35.1941 240.621 35.2827 240.99 35.2827 241.382C35.2827 241.877 35.1567 242.325 34.9047 242.726C34.6527 243.118 34.2841 243.431 33.7987 243.664C33.3227 243.888 32.7581 244 32.1047 244H28.4647V234.242H31.9647C32.6274 234.242 33.1921 234.354 33.6587 234.578C34.1254 234.793 34.4754 235.087 34.7087 235.46C34.9421 235.833 35.0587 236.253 35.0587 236.72C35.0587 237.299 34.9001 237.779 34.5827 238.162C34.2747 238.535 33.8641 238.806 33.3507 238.974ZM29.7387 238.456H31.8807C32.4781 238.456 32.9401 238.316 33.2667 238.036C33.5934 237.756 33.7567 237.369 33.7567 236.874C33.7567 236.379 33.5934 235.992 33.2667 235.712C32.9401 235.432 32.4687 235.292 31.8527 235.292H29.7387V238.456ZM31.9927 242.95C32.6274 242.95 33.1221 242.801 33.4767 242.502C33.8314 242.203 34.0087 241.788 34.0087 241.256C34.0087 240.715 33.8221 240.29 33.4487 239.982C33.0754 239.665 32.5761 239.506 31.9507 239.506H29.7387V242.95H31.9927Z" fill="#063B50" fill-opacity="0.4"/>
<path d="M7.51 157.286C7.30467 156.25 6.66533 155.732 5.592 155.732C4.76133 155.732 4.14067 156.054 3.73 156.698C3.31933 157.333 3.11867 158.383 3.128 159.848C3.34267 159.363 3.69733 158.985 4.192 158.714C4.696 158.434 5.256 158.294 5.872 158.294C6.83333 158.294 7.59867 158.593 8.168 159.19C8.74667 159.787 9.036 160.613 9.036 161.668C9.036 162.303 8.91 162.872 8.658 163.376C8.41533 163.88 8.042 164.281 7.538 164.58C7.04333 164.879 6.44133 165.028 5.732 165.028C4.77067 165.028 4.01933 164.813 3.478 164.384C2.93667 163.955 2.55867 163.362 2.344 162.606C2.12933 161.85 2.022 160.917 2.022 159.806C2.022 156.381 3.21667 154.668 5.606 154.668C6.52067 154.668 7.23933 154.915 7.762 155.41C8.28467 155.905 8.59267 156.53 8.686 157.286H7.51ZM5.606 159.372C5.20467 159.372 4.82667 159.456 4.472 159.624C4.11733 159.783 3.828 160.03 3.604 160.366C3.38933 160.693 3.282 161.094 3.282 161.57C3.282 162.279 3.48733 162.858 3.898 163.306C4.30867 163.745 4.89667 163.964 5.662 163.964C6.31533 163.964 6.83333 163.763 7.216 163.362C7.608 162.951 7.804 162.401 7.804 161.71C7.804 160.982 7.61733 160.413 7.244 160.002C6.87067 159.582 6.32467 159.372 5.606 159.372ZM10.7547 159.834C10.7547 158.229 11.0161 156.978 11.5387 156.082C12.0614 155.177 12.9761 154.724 14.2827 154.724C15.5801 154.724 16.4901 155.177 17.0127 156.082C17.5354 156.978 17.7967 158.229 17.7967 159.834C17.7967 161.467 17.5354 162.737 17.0127 163.642C16.4901 164.547 15.5801 165 14.2827 165C12.9761 165 12.0614 164.547 11.5387 163.642C11.0161 162.737 10.7547 161.467 10.7547 159.834ZM16.5367 159.834C16.5367 159.022 16.4807 158.336 16.3687 157.776C16.2661 157.207 16.0467 156.749 15.7107 156.404C15.3841 156.059 14.9081 155.886 14.2827 155.886C13.6481 155.886 13.1627 156.059 12.8267 156.404C12.5001 156.749 12.2807 157.207 12.1687 157.776C12.0661 158.336 12.0147 159.022 12.0147 159.834C12.0147 160.674 12.0661 161.379 12.1687 161.948C12.2807 162.517 12.5001 162.975 12.8267 163.32C13.1627 163.665 13.6481 163.838 14.2827 163.838C14.9081 163.838 15.3841 163.665 15.7107 163.32C16.0467 162.975 16.2661 162.517 16.3687 161.948C16.4807 161.379 16.5367 160.674 16.5367 159.834ZM19.5457 159.834C19.5457 158.229 19.8071 156.978 20.3297 156.082C20.8524 155.177 21.7671 154.724 23.0737 154.724C24.3711 154.724 25.2811 155.177 25.8037 156.082C26.3264 156.978 26.5877 158.229 26.5877 159.834C26.5877 161.467 26.3264 162.737 25.8037 163.642C25.2811 164.547 24.3711 165 23.0737 165C21.7671 165 20.8524 164.547 20.3297 163.642C19.8071 162.737 19.5457 161.467 19.5457 159.834ZM25.3277 159.834C25.3277 159.022 25.2717 158.336 25.1597 157.776C25.0571 157.207 24.8377 156.749 24.5017 156.404C24.1751 156.059 23.6991 155.886 23.0737 155.886C22.4391 155.886 21.9537 156.059 21.6177 156.404C21.2911 156.749 21.0717 157.207 20.9597 157.776C20.8571 158.336 20.8057 159.022 20.8057 159.834C20.8057 160.674 20.8571 161.379 20.9597 161.948C21.0717 162.517 21.2911 162.975 21.6177 163.32C21.9537 163.665 22.4391 163.838 23.0737 163.838C23.6991 163.838 24.1751 163.665 24.5017 163.32C24.8377 162.975 25.0571 162.517 25.1597 161.948C25.2717 161.379 25.3277 160.674 25.3277 159.834ZM33.4328 159.974C33.7874 160.03 34.1094 160.175 34.3988 160.408C34.6974 160.641 34.9308 160.931 35.0988 161.276C35.2761 161.621 35.3648 161.99 35.3648 162.382C35.3648 162.877 35.2388 163.325 34.9868 163.726C34.7348 164.118 34.3661 164.431 33.8808 164.664C33.4048 164.888 32.8401 165 32.1868 165H28.5468V155.242H32.0468C32.7094 155.242 33.2741 155.354 33.7408 155.578C34.2074 155.793 34.5574 156.087 34.7908 156.46C35.0241 156.833 35.1408 157.253 35.1408 157.72C35.1408 158.299 34.9821 158.779 34.6647 159.162C34.3568 159.535 33.9461 159.806 33.4328 159.974ZM29.8208 159.456H31.9628C32.5601 159.456 33.0221 159.316 33.3488 159.036C33.6754 158.756 33.8388 158.369 33.8388 157.874C33.8388 157.379 33.6754 156.992 33.3488 156.712C33.0221 156.432 32.5508 156.292 31.9348 156.292H29.8208V159.456ZM32.0748 163.95C32.7094 163.95 33.2041 163.801 33.5588 163.502C33.9134 163.203 34.0908 162.788 34.0908 162.256C34.0908 161.715 33.9041 161.29 33.5308 160.982C33.1574 160.665 32.6581 160.506 32.0328 160.506H29.8208V163.95H32.0748Z" fill="#063B50" fill-opacity="0.4"/>
<path d="M3.716 79.736C3.19333 79.5307 2.792 79.232 2.512 78.84C2.232 78.448 2.092 77.972 2.092 77.412C2.092 76.908 2.218 76.4553 2.47 76.054C2.722 75.6433 3.09533 75.3213 3.59 75.088C4.094 74.8453 4.70067 74.724 5.41 74.724C6.11933 74.724 6.72133 74.8453 7.216 75.088C7.72 75.3213 8.098 75.6433 8.35 76.054C8.61133 76.4553 8.742 76.908 8.742 77.412C8.742 77.9533 8.59733 78.4293 8.308 78.84C8.01867 79.2413 7.622 79.54 7.118 79.736C7.69667 79.9133 8.154 80.226 8.49 80.674C8.83533 81.1127 9.008 81.6447 9.008 82.27C9.008 82.8767 8.85867 83.4087 8.56 83.866C8.26133 84.314 7.83667 84.664 7.286 84.916C6.74467 85.1587 6.11933 85.28 5.41 85.28C4.70067 85.28 4.07533 85.1587 3.534 84.916C3.002 84.664 2.58667 84.314 2.288 83.866C1.98933 83.4087 1.84 82.8767 1.84 82.27C1.84 81.6447 2.008 81.108 2.344 80.66C2.68 80.212 3.13733 79.904 3.716 79.736ZM7.51 77.566C7.51 76.9967 7.32333 76.558 6.95 76.25C6.57667 75.942 6.06333 75.788 5.41 75.788C4.766 75.788 4.25733 75.942 3.884 76.25C3.51067 76.558 3.324 77.0013 3.324 77.58C3.324 78.1027 3.51533 78.5227 3.898 78.84C4.29 79.1573 4.794 79.316 5.41 79.316C6.03533 79.316 6.53933 79.1573 6.922 78.84C7.314 78.5133 7.51 78.0887 7.51 77.566ZM5.41 80.296C4.71933 80.296 4.15467 80.4593 3.716 80.786C3.27733 81.1033 3.058 81.584 3.058 82.228C3.058 82.8253 3.268 83.306 3.688 83.67C4.11733 84.034 4.69133 84.216 5.41 84.216C6.12867 84.216 6.698 84.034 7.118 83.67C7.538 83.306 7.748 82.8253 7.748 82.228C7.748 81.6027 7.53333 81.1267 7.104 80.8C6.67467 80.464 6.11 80.296 5.41 80.296ZM10.7 79.834C10.7 78.2287 10.9614 76.978 11.484 76.082C12.0067 75.1767 12.9214 74.724 14.228 74.724C15.5254 74.724 16.4354 75.1767 16.958 76.082C17.4807 76.978 17.742 78.2287 17.742 79.834C17.742 81.4673 17.4807 82.7367 16.958 83.642C16.4354 84.5473 15.5254 85 14.228 85C12.9214 85 12.0067 84.5473 11.484 83.642C10.9614 82.7367 10.7 81.4673 10.7 79.834ZM16.482 79.834C16.482 79.022 16.426 78.336 16.314 77.776C16.2114 77.2067 15.992 76.7493 15.656 76.404C15.3294 76.0587 14.8534 75.886 14.228 75.886C13.5934 75.886 13.108 76.0587 12.772 76.404C12.4454 76.7493 12.226 77.2067 12.114 77.776C12.0114 78.336 11.96 79.022 11.96 79.834C11.96 80.674 12.0114 81.3787 12.114 81.948C12.226 82.5173 12.4454 82.9747 12.772 83.32C13.108 83.6653 13.5934 83.838 14.228 83.838C14.8534 83.838 15.3294 83.6653 15.656 83.32C15.992 82.9747 16.2114 82.5173 16.314 81.948C16.426 81.3787 16.482 80.674 16.482 79.834ZM19.491 79.834C19.491 78.2287 19.7524 76.978 20.275 76.082C20.7977 75.1767 21.7124 74.724 23.019 74.724C24.3164 74.724 25.2264 75.1767 25.749 76.082C26.2717 76.978 26.533 78.2287 26.533 79.834C26.533 81.4673 26.2717 82.7367 25.749 83.642C25.2264 84.5473 24.3164 85 23.019 85C21.7124 85 20.7977 84.5473 20.275 83.642C19.7524 82.7367 19.491 81.4673 19.491 79.834ZM25.273 79.834C25.273 79.022 25.217 78.336 25.105 77.776C25.0024 77.2067 24.783 76.7493 24.447 76.404C24.1204 76.0587 23.6444 75.886 23.019 75.886C22.3844 75.886 21.899 76.0587 21.563 76.404C21.2364 76.7493 21.017 77.2067 20.905 77.776C20.8024 78.336 20.751 79.022 20.751 79.834C20.751 80.674 20.8024 81.3787 20.905 81.948C21.017 82.5173 21.2364 82.9747 21.563 83.32C21.899 83.6653 22.3844 83.838 23.019 83.838C23.6444 83.838 24.1204 83.6653 24.447 83.32C24.783 82.9747 25.0024 82.5173 25.105 81.948C25.217 81.3787 25.273 80.674 25.273 79.834ZM33.3781 79.974C33.7327 80.03 34.0547 80.1747 34.3441 80.408C34.6427 80.6413 34.8761 80.9307 35.0441 81.276C35.2214 81.6213 35.3101 81.99 35.3101 82.382C35.3101 82.8767 35.1841 83.3247 34.9321 83.726C34.6801 84.118 34.3114 84.4307 33.8261 84.664C33.3501 84.888 32.7854 85 32.1321 85H28.4921V75.242H31.9921C32.6547 75.242 33.2194 75.354 33.6861 75.578C34.1527 75.7927 34.5027 76.0867 34.7361 76.46C34.9694 76.8333 35.0861 77.2533 35.0861 77.72C35.0861 78.2987 34.9274 78.7793 34.6101 79.162C34.3021 79.5353 33.8914 79.806 33.3781 79.974ZM29.7661 79.456H31.9081C32.5054 79.456 32.9674 79.316 33.2941 79.036C33.6207 78.756 33.7841 78.3687 33.7841 77.874C33.7841 77.3793 33.6207 76.992 33.2941 76.712C32.9674 76.432 32.4961 76.292 31.8801 76.292H29.7661V79.456ZM32.0201 83.95C32.6547 83.95 33.1494 83.8007 33.5041 83.502C33.8587 83.2033 34.0361 82.788 34.0361 82.256C34.0361 81.7147 33.8494 81.29 33.4761 80.982C33.1027 80.6647 32.6034 80.506 31.9781 80.506H29.7661V83.95H32.0201Z" fill="#063B50" fill-opacity="0.4"/>
<path d="M1.532 6.04V4.878H4.164V15H2.876V6.04H1.532ZM6.35238 9.834C6.35238 8.22867 6.61371 6.978 7.13638 6.082C7.65904 5.17667 8.57371 4.724 9.88038 4.724C11.1777 4.724 12.0877 5.17667 12.6104 6.082C13.133 6.978 13.3944 8.22867 13.3944 9.834C13.3944 11.4673 13.133 12.7367 12.6104 13.642C12.0877 14.5473 11.1777 15 9.88038 15C8.57371 15 7.65904 14.5473 7.13638 13.642C6.61371 12.7367 6.35238 11.4673 6.35238 9.834ZM12.1344 9.834C12.1344 9.022 12.0784 8.336 11.9664 7.776C11.8637 7.20667 11.6444 6.74933 11.3084 6.404C10.9817 6.05867 10.5057 5.886 9.88038 5.886C9.24571 5.886 8.76038 6.05867 8.42438 6.404C8.09771 6.74933 7.87838 7.20667 7.76638 7.776C7.66371 8.336 7.61238 9.022 7.61238 9.834C7.61238 10.674 7.66371 11.3787 7.76638 11.948C7.87838 12.5173 8.09771 12.9747 8.42438 13.32C8.76038 13.6653 9.24571 13.838 9.88038 13.838C10.5057 13.838 10.9817 13.6653 11.3084 13.32C11.6444 12.9747 11.8637 12.5173 11.9664 11.948C12.0784 11.3787 12.1344 10.674 12.1344 9.834ZM15.1434 9.834C15.1434 8.22867 15.4047 6.978 15.9274 6.082C16.4501 5.17667 17.3647 4.724 18.6714 4.724C19.9687 4.724 20.8787 5.17667 21.4014 6.082C21.9241 6.978 22.1854 8.22867 22.1854 9.834C22.1854 11.4673 21.9241 12.7367 21.4014 13.642C20.8787 14.5473 19.9687 15 18.6714 15C17.3647 15 16.4501 14.5473 15.9274 13.642C15.4047 12.7367 15.1434 11.4673 15.1434 9.834ZM20.9254 9.834C20.9254 9.022 20.8694 8.336 20.7574 7.776C20.6547 7.20667 20.4354 6.74933 20.0994 6.404C19.7727 6.05867 19.2967 5.886 18.6714 5.886C18.0367 5.886 17.5514 6.05867 17.2154 6.404C16.8887 6.74933 16.6694 7.20667 16.5574 7.776C16.4547 8.336 16.4034 9.022 16.4034 9.834C16.4034 10.674 16.4547 11.3787 16.5574 11.948C16.6694 12.5173 16.8887 12.9747 17.2154 13.32C17.5514 13.6653 18.0367 13.838 18.6714 13.838C19.2967 13.838 19.7727 13.6653 20.0994 13.32C20.4354 12.9747 20.6547 12.5173 20.7574 11.948C20.8694 11.3787 20.9254 10.674 20.9254 9.834ZM23.9344 9.834C23.9344 8.22867 24.1957 6.978 24.7184 6.082C25.2411 5.17667 26.1557 4.724 27.4624 4.724C28.7597 4.724 29.6697 5.17667 30.1924 6.082C30.7151 6.978 30.9764 8.22867 30.9764 9.834C30.9764 11.4673 30.7151 12.7367 30.1924 13.642C29.6697 14.5473 28.7597 15 27.4624 15C26.1557 15 25.2411 14.5473 24.7184 13.642C24.1957 12.7367 23.9344 11.4673 23.9344 9.834ZM29.7164 9.834C29.7164 9.022 29.6604 8.336 29.5484 7.776C29.4457 7.20667 29.2264 6.74933 28.8904 6.404C28.5637 6.05867 28.0877 5.886 27.4624 5.886C26.8277 5.886 26.3424 6.05867 26.0064 6.404C25.6797 6.74933 25.4604 7.20667 25.3484 7.776C25.2457 8.336 25.1944 9.022 25.1944 9.834C25.1944 10.674 25.2457 11.3787 25.3484 11.948C25.4604 12.5173 25.6797 12.9747 26.0064 13.32C26.3424 13.6653 26.8277 13.838 27.4624 13.838C28.0877 13.838 28.5637 13.6653 28.8904 13.32C29.2264 12.9747 29.4457 12.5173 29.5484 11.948C29.6604 11.3787 29.7164 10.674 29.7164 9.834ZM37.8214 9.974C38.1761 10.03 38.4981 10.1747 38.7874 10.408C39.0861 10.6413 39.3194 10.9307 39.4874 11.276C39.6648 11.6213 39.7534 11.99 39.7534 12.382C39.7534 12.8767 39.6274 13.3247 39.3754 13.726C39.1234 14.118 38.7548 14.4307 38.2694 14.664C37.7934 14.888 37.2288 15 36.5754 15H32.9354V5.242H36.4354C37.0981 5.242 37.6628 5.354 38.1294 5.578C38.5961 5.79267 38.9461 6.08667 39.1794 6.46C39.4128 6.83333 39.5294 7.25333 39.5294 7.72C39.5294 8.29867 39.3708 8.77933 39.0534 9.162C38.7454 9.53533 38.3348 9.806 37.8214 9.974ZM34.2094 9.456H36.3514C36.9488 9.456 37.4108 9.316 37.7374 9.036C38.0641 8.756 38.2274 8.36867 38.2274 7.874C38.2274 7.37933 38.0641 6.992 37.7374 6.712C37.4108 6.432 36.9394 6.292 36.3234 6.292H34.2094V9.456ZM36.4634 13.95C37.0981 13.95 37.5928 13.8007 37.9474 13.502C38.3021 13.2033 38.4794 12.788 38.4794 12.256C38.4794 11.7147 38.2928 11.29 37.9194 10.982C37.5461 10.6647 37.0468 10.506 36.4214 10.506H34.2094V13.95H36.4634Z" fill="#063B50" fill-opacity="0.4"/>
<path d="M136.322 387.984H131.408V391.176C131.623 390.877 131.94 390.635 132.36 390.448C132.78 390.252 133.233 390.154 133.718 390.154C134.493 390.154 135.123 390.317 135.608 390.644C136.093 390.961 136.439 391.377 136.644 391.89C136.859 392.394 136.966 392.931 136.966 393.5C136.966 394.172 136.84 394.774 136.588 395.306C136.336 395.838 135.949 396.258 135.426 396.566C134.913 396.874 134.273 397.028 133.508 397.028C132.528 397.028 131.735 396.776 131.128 396.272C130.521 395.768 130.153 395.096 130.022 394.256H131.268C131.389 394.788 131.646 395.203 132.038 395.502C132.43 395.801 132.925 395.95 133.522 395.95C134.259 395.95 134.815 395.731 135.188 395.292C135.561 394.844 135.748 394.256 135.748 393.528C135.748 392.8 135.561 392.24 135.188 391.848C134.815 391.447 134.264 391.246 133.536 391.246C133.041 391.246 132.607 391.367 132.234 391.61C131.87 391.843 131.604 392.165 131.436 392.576H130.232V386.864H136.322V387.984Z" fill="#063B50" fill-opacity="0.4"/>
<path d="M211.532 388.04V386.878H214.164V397H212.876V388.04H211.532ZM216.352 391.834C216.352 390.229 216.614 388.978 217.136 388.082C217.659 387.177 218.574 386.724 219.88 386.724C221.178 386.724 222.088 387.177 222.61 388.082C223.133 388.978 223.394 390.229 223.394 391.834C223.394 393.467 223.133 394.737 222.61 395.642C222.088 396.547 221.178 397 219.88 397C218.574 397 217.659 396.547 217.136 395.642C216.614 394.737 216.352 393.467 216.352 391.834ZM222.134 391.834C222.134 391.022 222.078 390.336 221.966 389.776C221.864 389.207 221.644 388.749 221.308 388.404C220.982 388.059 220.506 387.886 219.88 387.886C219.246 387.886 218.76 388.059 218.424 388.404C218.098 388.749 217.878 389.207 217.766 389.776C217.664 390.336 217.612 391.022 217.612 391.834C217.612 392.674 217.664 393.379 217.766 393.948C217.878 394.517 218.098 394.975 218.424 395.32C218.76 395.665 219.246 395.838 219.88 395.838C220.506 395.838 220.982 395.665 221.308 395.32C221.644 394.975 221.864 394.517 221.966 393.948C222.078 393.379 222.134 392.674 222.134 391.834Z" fill="#063B50" fill-opacity="0.4"/>
<path d="M298.532 388.04V386.878H301.164V397H299.876V388.04H298.532ZM309.806 387.984H304.892V391.176C305.107 390.877 305.424 390.635 305.844 390.448C306.264 390.252 306.717 390.154 307.202 390.154C307.977 390.154 308.607 390.317 309.092 390.644C309.578 390.961 309.923 391.377 310.128 391.89C310.343 392.394 310.45 392.931 310.45 393.5C310.45 394.172 310.324 394.774 310.072 395.306C309.82 395.838 309.433 396.258 308.91 396.566C308.397 396.874 307.758 397.028 306.992 397.028C306.012 397.028 305.219 396.776 304.612 396.272C304.006 395.768 303.637 395.096 303.506 394.256H304.752C304.874 394.788 305.13 395.203 305.522 395.502C305.914 395.801 306.409 395.95 307.006 395.95C307.744 395.95 308.299 395.731 308.672 395.292C309.046 394.844 309.232 394.256 309.232 393.528C309.232 392.8 309.046 392.24 308.672 391.848C308.299 391.447 307.748 391.246 307.02 391.246C306.526 391.246 306.092 391.367 305.718 391.61C305.354 391.843 305.088 392.165 304.92 392.576H303.716V386.864H309.806V387.984Z" fill="#063B50" fill-opacity="0.4"/>
<path d="M385.714 395.978C386.899 395.026 387.828 394.247 388.5 393.64C389.172 393.024 389.737 392.385 390.194 391.722C390.661 391.05 390.894 390.392 390.894 389.748C390.894 389.141 390.745 388.665 390.446 388.32C390.157 387.965 389.685 387.788 389.032 387.788C388.397 387.788 387.903 387.989 387.548 388.39C387.203 388.782 387.016 389.309 386.988 389.972H385.756C385.793 388.927 386.111 388.119 386.708 387.55C387.305 386.981 388.075 386.696 389.018 386.696C389.979 386.696 390.74 386.962 391.3 387.494C391.869 388.026 392.154 388.759 392.154 389.692C392.154 390.467 391.921 391.223 391.454 391.96C390.997 392.688 390.474 393.332 389.886 393.892C389.298 394.443 388.547 395.087 387.632 395.824H392.448V396.888H385.714V395.978ZM393.921 391.834C393.921 390.229 394.182 388.978 394.705 388.082C395.227 387.177 396.142 386.724 397.449 386.724C398.746 386.724 399.656 387.177 400.179 388.082C400.701 388.978 400.963 390.229 400.963 391.834C400.963 393.467 400.701 394.737 400.179 395.642C399.656 396.547 398.746 397 397.449 397C396.142 397 395.227 396.547 394.705 395.642C394.182 394.737 393.921 393.467 393.921 391.834ZM399.703 391.834C399.703 391.022 399.647 390.336 399.535 389.776C399.432 389.207 399.213 388.749 398.877 388.404C398.55 388.059 398.074 387.886 397.449 387.886C396.814 387.886 396.329 388.059 395.993 388.404C395.666 388.749 395.447 389.207 395.335 389.776C395.232 390.336 395.181 391.022 395.181 391.834C395.181 392.674 395.232 393.379 395.335 393.948C395.447 394.517 395.666 394.975 395.993 395.32C396.329 395.665 396.814 395.838 397.449 395.838C398.074 395.838 398.55 395.665 398.877 395.32C399.213 394.975 399.432 394.517 399.535 393.948C399.647 393.379 399.703 392.674 399.703 391.834Z" fill="#063B50" fill-opacity="0.4"/>
<path d="M475.714 395.978C476.899 395.026 477.828 394.247 478.5 393.64C479.172 393.024 479.737 392.385 480.194 391.722C480.661 391.05 480.894 390.392 480.894 389.748C480.894 389.141 480.745 388.665 480.446 388.32C480.157 387.965 479.685 387.788 479.032 387.788C478.397 387.788 477.903 387.989 477.548 388.39C477.203 388.782 477.016 389.309 476.988 389.972H475.756C475.793 388.927 476.111 388.119 476.708 387.55C477.305 386.981 478.075 386.696 479.018 386.696C479.979 386.696 480.74 386.962 481.3 387.494C481.869 388.026 482.154 388.759 482.154 389.692C482.154 390.467 481.921 391.223 481.454 391.96C480.997 392.688 480.474 393.332 479.886 393.892C479.298 394.443 478.547 395.087 477.632 395.824H482.448V396.888H475.714V395.978ZM490.375 387.984H485.461V391.176C485.675 390.877 485.993 390.635 486.413 390.448C486.833 390.252 487.285 390.154 487.771 390.154C488.545 390.154 489.175 390.317 489.661 390.644C490.146 390.961 490.491 391.377 490.697 391.89C490.911 392.394 491.019 392.931 491.019 393.5C491.019 394.172 490.893 394.774 490.641 395.306C490.389 395.838 490.001 396.258 489.479 396.566C488.965 396.874 488.326 397.028 487.561 397.028C486.581 397.028 485.787 396.776 485.181 396.272C484.574 395.768 484.205 395.096 484.075 394.256H485.321C485.442 394.788 485.699 395.203 486.091 395.502C486.483 395.801 486.977 395.95 487.575 395.95C488.312 395.95 488.867 395.731 489.241 395.292C489.614 394.844 489.801 394.256 489.801 393.528C489.801 392.8 489.614 392.24 489.241 391.848C488.867 391.447 488.317 391.246 487.589 391.246C487.094 391.246 486.66 391.367 486.287 391.61C485.923 391.843 485.657 392.165 485.489 392.576H484.285V386.864H490.375V387.984Z" fill="#063B50" fill-opacity="0.4"/>
<path d="M565.84 389.426C565.905 388.567 566.237 387.895 566.834 387.41C567.431 386.925 568.206 386.682 569.158 386.682C569.793 386.682 570.339 386.799 570.796 387.032C571.263 387.256 571.613 387.564 571.846 387.956C572.089 388.348 572.21 388.791 572.21 389.286C572.21 389.865 572.042 390.364 571.706 390.784C571.379 391.204 570.95 391.475 570.418 391.596V391.666C571.025 391.815 571.505 392.109 571.86 392.548C572.215 392.987 572.392 393.561 572.392 394.27C572.392 394.802 572.271 395.283 572.028 395.712C571.785 396.132 571.421 396.463 570.936 396.706C570.451 396.949 569.867 397.07 569.186 397.07C568.197 397.07 567.385 396.813 566.75 396.3C566.115 395.777 565.761 395.04 565.686 394.088H566.918C566.983 394.648 567.212 395.105 567.604 395.46C567.996 395.815 568.519 395.992 569.172 395.992C569.825 395.992 570.32 395.824 570.656 395.488C571.001 395.143 571.174 394.699 571.174 394.158C571.174 393.458 570.941 392.954 570.474 392.646C570.007 392.338 569.303 392.184 568.36 392.184H568.038V391.12H568.374C569.233 391.111 569.881 390.971 570.32 390.7C570.759 390.42 570.978 389.991 570.978 389.412C570.978 388.917 570.815 388.521 570.488 388.222C570.171 387.923 569.713 387.774 569.116 387.774C568.537 387.774 568.071 387.923 567.716 388.222C567.361 388.521 567.151 388.922 567.086 389.426H565.84ZM574.112 391.834C574.112 390.229 574.373 388.978 574.896 388.082C575.419 387.177 576.333 386.724 577.64 386.724C578.937 386.724 579.847 387.177 580.37 388.082C580.893 388.978 581.154 390.229 581.154 391.834C581.154 393.467 580.893 394.737 580.37 395.642C579.847 396.547 578.937 397 577.64 397C576.333 397 575.419 396.547 574.896 395.642C574.373 394.737 574.112 393.467 574.112 391.834ZM579.894 391.834C579.894 391.022 579.838 390.336 579.726 389.776C579.623 389.207 579.404 388.749 579.068 388.404C578.741 388.059 578.265 387.886 577.64 387.886C577.005 387.886 576.52 388.059 576.184 388.404C575.857 388.749 575.638 389.207 575.526 389.776C575.423 390.336 575.372 391.022 575.372 391.834C575.372 392.674 575.423 393.379 575.526 393.948C575.638 394.517 575.857 394.975 576.184 395.32C576.52 395.665 577.005 395.838 577.64 395.838C578.265 395.838 578.741 395.665 579.068 395.32C579.404 394.975 579.623 394.517 579.726 393.948C579.838 393.379 579.894 392.674 579.894 391.834Z" fill="#063B50" fill-opacity="0.4"/>
<path d="M656.84 389.426C656.905 388.567 657.237 387.895 657.834 387.41C658.431 386.925 659.206 386.682 660.158 386.682C660.793 386.682 661.339 386.799 661.796 387.032C662.263 387.256 662.613 387.564 662.846 387.956C663.089 388.348 663.21 388.791 663.21 389.286C663.21 389.865 663.042 390.364 662.706 390.784C662.379 391.204 661.95 391.475 661.418 391.596V391.666C662.025 391.815 662.505 392.109 662.86 392.548C663.215 392.987 663.392 393.561 663.392 394.27C663.392 394.802 663.271 395.283 663.028 395.712C662.785 396.132 662.421 396.463 661.936 396.706C661.451 396.949 660.867 397.07 660.186 397.07C659.197 397.07 658.385 396.813 657.75 396.3C657.115 395.777 656.761 395.04 656.686 394.088H657.918C657.983 394.648 658.212 395.105 658.604 395.46C658.996 395.815 659.519 395.992 660.172 395.992C660.825 395.992 661.32 395.824 661.656 395.488C662.001 395.143 662.174 394.699 662.174 394.158C662.174 393.458 661.941 392.954 661.474 392.646C661.007 392.338 660.303 392.184 659.36 392.184H659.038V391.12H659.374C660.233 391.111 660.881 390.971 661.32 390.7C661.759 390.42 661.978 389.991 661.978 389.412C661.978 388.917 661.815 388.521 661.488 388.222C661.171 387.923 660.713 387.774 660.116 387.774C659.537 387.774 659.071 387.923 658.716 388.222C658.361 388.521 658.151 388.922 658.086 389.426H656.84ZM671.566 387.984H666.652V391.176C666.867 390.877 667.184 390.635 667.604 390.448C668.024 390.252 668.477 390.154 668.962 390.154C669.737 390.154 670.367 390.317 670.852 390.644C671.337 390.961 671.683 391.377 671.888 391.89C672.103 392.394 672.21 392.931 672.21 393.5C672.21 394.172 672.084 394.774 671.832 395.306C671.58 395.838 671.193 396.258 670.67 396.566C670.157 396.874 669.517 397.028 668.752 397.028C667.772 397.028 666.979 396.776 666.372 396.272C665.765 395.768 665.397 395.096 665.266 394.256H666.512C666.633 394.788 666.89 395.203 667.282 395.502C667.674 395.801 668.169 395.95 668.766 395.95C669.503 395.95 670.059 395.731 670.432 395.292C670.805 394.844 670.992 394.256 670.992 393.528C670.992 392.8 670.805 392.24 670.432 391.848C670.059 391.447 669.508 391.246 668.78 391.246C668.285 391.246 667.851 391.367 667.478 391.61C667.114 391.843 666.848 392.165 666.68 392.576H665.476V386.864H671.566V387.984Z" fill="#063B50" fill-opacity="0.4"/>
<path d="M747.56 394.746V393.78L752.474 386.976H754V393.64H755.4V394.746H754V397H752.74V394.746H747.56ZM752.796 388.306L749.03 393.64H752.796V388.306ZM756.673 391.834C756.673 390.229 756.934 388.978 757.457 388.082C757.979 387.177 758.894 386.724 760.201 386.724C761.498 386.724 762.408 387.177 762.931 388.082C763.453 388.978 763.715 390.229 763.715 391.834C763.715 393.467 763.453 394.737 762.931 395.642C762.408 396.547 761.498 397 760.201 397C758.894 397 757.979 396.547 757.457 395.642C756.934 394.737 756.673 393.467 756.673 391.834ZM762.455 391.834C762.455 391.022 762.399 390.336 762.287 389.776C762.184 389.207 761.965 388.749 761.629 388.404C761.302 388.059 760.826 387.886 760.201 387.886C759.566 387.886 759.081 388.059 758.745 388.404C758.418 388.749 758.199 389.207 758.087 389.776C757.984 390.336 757.933 391.022 757.933 391.834C757.933 392.674 757.984 393.379 758.087 393.948C758.199 394.517 758.418 394.975 758.745 395.32C759.081 395.665 759.566 395.838 760.201 395.838C760.826 395.838 761.302 395.665 761.629 395.32C761.965 394.975 762.184 394.517 762.287 393.948C762.399 393.379 762.455 392.674 762.455 391.834Z" fill="#063B50" fill-opacity="0.4"/>
<path d="M838.56 394.746V393.78L843.474 386.976H845V393.64H846.4V394.746H845V397H843.74V394.746H838.56ZM843.796 388.306L840.03 393.64H843.796V388.306ZM854.127 387.984H849.213V391.176C849.427 390.877 849.745 390.635 850.165 390.448C850.585 390.252 851.037 390.154 851.523 390.154C852.297 390.154 852.927 390.317 853.413 390.644C853.898 390.961 854.243 391.377 854.449 391.89C854.663 392.394 854.771 392.931 854.771 393.5C854.771 394.172 854.645 394.774 854.393 395.306C854.141 395.838 853.753 396.258 853.231 396.566C852.717 396.874 852.078 397.028 851.313 397.028C850.333 397.028 849.539 396.776 848.933 396.272C848.326 395.768 847.957 395.096 847.827 394.256H849.073C849.194 394.788 849.451 395.203 849.843 395.502C850.235 395.801 850.729 395.95 851.327 395.95C852.064 395.95 852.619 395.731 852.993 395.292C853.366 394.844 853.553 394.256 853.553 393.528C853.553 392.8 853.366 392.24 852.993 391.848C852.619 391.447 852.069 391.246 851.341 391.246C850.846 391.246 850.412 391.367 850.039 391.61C849.675 391.843 849.409 392.165 849.241 392.576H848.037V386.864H854.127V387.984Z" fill="#063B50" fill-opacity="0.4"/>
<path d="M936.322 387.984H931.408V391.176C931.623 390.877 931.94 390.635 932.36 390.448C932.78 390.252 933.233 390.154 933.718 390.154C934.493 390.154 935.123 390.317 935.608 390.644C936.093 390.961 936.439 391.377 936.644 391.89C936.859 392.394 936.966 392.931 936.966 393.5C936.966 394.172 936.84 394.774 936.588 395.306C936.336 395.838 935.949 396.258 935.426 396.566C934.913 396.874 934.273 397.028 933.508 397.028C932.528 397.028 931.735 396.776 931.128 396.272C930.521 395.768 930.153 395.096 930.022 394.256H931.268C931.389 394.788 931.646 395.203 932.038 395.502C932.43 395.801 932.925 395.95 933.522 395.95C934.259 395.95 934.815 395.731 935.188 395.292C935.561 394.844 935.748 394.256 935.748 393.528C935.748 392.8 935.561 392.24 935.188 391.848C934.815 391.447 934.264 391.246 933.536 391.246C933.041 391.246 932.607 391.367 932.234 391.61C931.87 391.843 931.604 392.165 931.436 392.576H930.232V386.864H936.322V387.984ZM938.659 391.834C938.659 390.229 938.92 388.978 939.443 388.082C939.966 387.177 940.88 386.724 942.187 386.724C943.484 386.724 944.394 387.177 944.917 388.082C945.44 388.978 945.701 390.229 945.701 391.834C945.701 393.467 945.44 394.737 944.917 395.642C944.394 396.547 943.484 397 942.187 397C940.88 397 939.966 396.547 939.443 395.642C938.92 394.737 938.659 393.467 938.659 391.834ZM944.441 391.834C944.441 391.022 944.385 390.336 944.273 389.776C944.17 389.207 943.951 388.749 943.615 388.404C943.288 388.059 942.812 387.886 942.187 387.886C941.552 387.886 941.067 388.059 940.731 388.404C940.404 388.749 940.185 389.207 940.073 389.776C939.97 390.336 939.919 391.022 939.919 391.834C939.919 392.674 939.97 393.379 940.073 393.948C940.185 394.517 940.404 394.975 940.731 395.32C941.067 395.665 941.552 395.838 942.187 395.838C942.812 395.838 943.288 395.665 943.615 395.32C943.951 394.975 944.17 394.517 944.273 393.948C944.385 393.379 944.441 392.674 944.441 391.834Z" fill="#063B50" fill-opacity="0.4"/>
<path d="M1027.32 387.984H1022.41V391.176C1022.62 390.877 1022.94 390.635 1023.36 390.448C1023.78 390.252 1024.23 390.154 1024.72 390.154C1025.49 390.154 1026.12 390.317 1026.61 390.644C1027.09 390.961 1027.44 391.377 1027.64 391.89C1027.86 392.394 1027.97 392.931 1027.97 393.5C1027.97 394.172 1027.84 394.774 1027.59 395.306C1027.34 395.838 1026.95 396.258 1026.43 396.566C1025.91 396.874 1025.27 397.028 1024.51 397.028C1023.53 397.028 1022.73 396.776 1022.13 396.272C1021.52 395.768 1021.15 395.096 1021.02 394.256H1022.27C1022.39 394.788 1022.65 395.203 1023.04 395.502C1023.43 395.801 1023.92 395.95 1024.52 395.95C1025.26 395.95 1025.81 395.731 1026.19 395.292C1026.56 394.844 1026.75 394.256 1026.75 393.528C1026.75 392.8 1026.56 392.24 1026.19 391.848C1025.81 391.447 1025.26 391.246 1024.54 391.246C1024.04 391.246 1023.61 391.367 1023.23 391.61C1022.87 391.843 1022.6 392.165 1022.44 392.576H1021.23V386.864H1027.32V387.984ZM1036.11 387.984H1031.2V391.176C1031.41 390.877 1031.73 390.635 1032.15 390.448C1032.57 390.252 1033.02 390.154 1033.51 390.154C1034.28 390.154 1034.91 390.317 1035.4 390.644C1035.88 390.961 1036.23 391.377 1036.44 391.89C1036.65 392.394 1036.76 392.931 1036.76 393.5C1036.76 394.172 1036.63 394.774 1036.38 395.306C1036.13 395.838 1035.74 396.258 1035.22 396.566C1034.7 396.874 1034.06 397.028 1033.3 397.028C1032.32 397.028 1031.53 396.776 1030.92 396.272C1030.31 395.768 1029.94 395.096 1029.81 394.256H1031.06C1031.18 394.788 1031.44 395.203 1031.83 395.502C1032.22 395.801 1032.72 395.95 1033.31 395.95C1034.05 395.95 1034.61 395.731 1034.98 395.292C1035.35 394.844 1035.54 394.256 1035.54 393.528C1035.54 392.8 1035.35 392.24 1034.98 391.848C1034.61 391.447 1034.06 391.246 1033.33 391.246C1032.83 391.246 1032.4 391.367 1032.03 391.61C1031.66 391.843 1031.4 392.165 1031.23 392.576H1030.02V386.864H1036.11V387.984Z" fill="#063B50" fill-opacity="0.4"/>
<path d="M1117.51 389.286C1117.3 388.25 1116.67 387.732 1115.59 387.732C1114.76 387.732 1114.14 388.054 1113.73 388.698C1113.32 389.333 1113.12 390.383 1113.13 391.848C1113.34 391.363 1113.7 390.985 1114.19 390.714C1114.7 390.434 1115.26 390.294 1115.87 390.294C1116.83 390.294 1117.6 390.593 1118.17 391.19C1118.75 391.787 1119.04 392.613 1119.04 393.668C1119.04 394.303 1118.91 394.872 1118.66 395.376C1118.42 395.88 1118.04 396.281 1117.54 396.58C1117.04 396.879 1116.44 397.028 1115.73 397.028C1114.77 397.028 1114.02 396.813 1113.48 396.384C1112.94 395.955 1112.56 395.362 1112.34 394.606C1112.13 393.85 1112.02 392.917 1112.02 391.806C1112.02 388.381 1113.22 386.668 1115.61 386.668C1116.52 386.668 1117.24 386.915 1117.76 387.41C1118.28 387.905 1118.59 388.53 1118.69 389.286H1117.51ZM1115.61 391.372C1115.2 391.372 1114.83 391.456 1114.47 391.624C1114.12 391.783 1113.83 392.03 1113.6 392.366C1113.39 392.693 1113.28 393.094 1113.28 393.57C1113.28 394.279 1113.49 394.858 1113.9 395.306C1114.31 395.745 1114.9 395.964 1115.66 395.964C1116.32 395.964 1116.83 395.763 1117.22 395.362C1117.61 394.951 1117.8 394.401 1117.8 393.71C1117.8 392.982 1117.62 392.413 1117.24 392.002C1116.87 391.582 1116.32 391.372 1115.61 391.372ZM1120.75 391.834C1120.75 390.229 1121.02 388.978 1121.54 388.082C1122.06 387.177 1122.98 386.724 1124.28 386.724C1125.58 386.724 1126.49 387.177 1127.01 388.082C1127.54 388.978 1127.8 390.229 1127.8 391.834C1127.8 393.467 1127.54 394.737 1127.01 395.642C1126.49 396.547 1125.58 397 1124.28 397C1122.98 397 1122.06 396.547 1121.54 395.642C1121.02 394.737 1120.75 393.467 1120.75 391.834ZM1126.54 391.834C1126.54 391.022 1126.48 390.336 1126.37 389.776C1126.27 389.207 1126.05 388.749 1125.71 388.404C1125.38 388.059 1124.91 387.886 1124.28 387.886C1123.65 387.886 1123.16 388.059 1122.83 388.404C1122.5 388.749 1122.28 389.207 1122.17 389.776C1122.07 390.336 1122.01 391.022 1122.01 391.834C1122.01 392.674 1122.07 393.379 1122.17 393.948C1122.28 394.517 1122.5 394.975 1122.83 395.32C1123.16 395.665 1123.65 395.838 1124.28 395.838C1124.91 395.838 1125.38 395.665 1125.71 395.32C1126.05 394.975 1126.27 394.517 1126.37 393.948C1126.48 393.379 1126.54 392.674 1126.54 391.834Z" fill="#063B50" fill-opacity="0.4"/>
<defs>
<clipPath id="clip0_1660_4616">
<rect width="1057.46" height="351.85" fill="white" transform="translate(73 10)"/>
</clipPath>
</defs>
</svg>
