<svg width="16" height="16" viewBox="0 0 16 16" fill="none" xmlns="http://www.w3.org/2000/svg">
<g clip-path="url(#clip0_2101_922)">
<path d="M11.333 1.33334H4.66634C2.82539 1.33334 1.33301 2.82573 1.33301 4.66668V11.3333C1.33301 13.1743 2.82539 14.6667 4.66634 14.6667H11.333C13.174 14.6667 14.6663 13.1743 14.6663 11.3333V4.66668C14.6663 2.82573 13.174 1.33334 11.333 1.33334Z" stroke="white" stroke-width="1.33333" stroke-linecap="round" stroke-linejoin="round"/>
<path d="M10.6668 7.57999C10.7491 8.13482 10.6543 8.70146 10.396 9.19933C10.1376 9.6972 9.72889 10.1009 9.22788 10.3531C8.72687 10.6053 8.1591 10.6931 7.60532 10.6039C7.05155 10.5148 6.53997 10.2534 6.14336 9.85676C5.74674 9.46015 5.48528 8.94857 5.39618 8.3948C5.30707 7.84102 5.39484 7.27325 5.64701 6.77224C5.89919 6.27122 6.30292 5.86248 6.80079 5.60415C7.29865 5.34582 7.8653 5.25105 8.42013 5.33332C8.98608 5.41724 9.51003 5.68096 9.91459 6.08553C10.3192 6.49009 10.5829 7.01404 10.6668 7.57999Z" stroke="white" stroke-width="1.33333" stroke-linecap="round" stroke-linejoin="round"/>
<path d="M11.667 4.33334H11.6737" stroke="white" stroke-width="1.33333" stroke-linecap="round" stroke-linejoin="round"/>
</g>
<defs>
<clipPath id="clip0_2101_922">
<rect width="16" height="16" fill="white"/>
</clipPath>
</defs>
</svg>
