<svg width="12" height="16" viewBox="0 0 12 16" fill="none" xmlns="http://www.w3.org/2000/svg">
<path d="M2.50781 12H0.164062V0.625H2.50781V12ZM4.21094 7.71094C4.21094 6.41406 4.51823 5.36979 5.13281 4.57812C5.7526 3.78646 6.58594 3.39062 7.63281 3.39062C8.5599 3.39062 9.28125 3.70833 9.79688 4.34375L9.89062 3.54688H11.9375V11.7188C11.9375 12.4583 11.7682 13.1016 11.4297 13.6484C11.0964 14.1953 10.625 14.612 10.0156 14.8984C9.40625 15.1849 8.69271 15.3281 7.875 15.3281C7.25521 15.3281 6.65104 15.2031 6.0625 14.9531C5.47396 14.7083 5.02865 14.3906 4.72656 14L5.72656 12.625C6.28906 13.2552 6.97135 13.5703 7.77344 13.5703C8.3724 13.5703 8.83854 13.4089 9.17188 13.0859C9.50521 12.7682 9.67188 12.3151 9.67188 11.7266V11.2734C9.15104 11.862 8.46615 12.1562 7.61719 12.1562C6.60156 12.1562 5.77865 11.7604 5.14844 10.9688C4.52344 10.1719 4.21094 9.11719 4.21094 7.80469V7.71094ZM6.46875 7.875C6.46875 8.64062 6.6224 9.24219 6.92969 9.67969C7.23698 10.112 7.65885 10.3281 8.19531 10.3281C8.88281 10.3281 9.375 10.0703 9.67188 9.55469V6C9.36979 5.48438 8.88281 5.22656 8.21094 5.22656C7.66927 5.22656 7.24219 5.44792 6.92969 5.89062C6.6224 6.33333 6.46875 6.99479 6.46875 7.875Z" fill="white"/>
</svg>
