<svg width="14" height="14" viewBox="0 0 14 14" fill="none" xmlns="http://www.w3.org/2000/svg">
<path d="M12.8013 1.64077L12.8009 1.64039C12.6753 1.53595 12.5238 1.4675 12.3625 1.44232C12.2011 1.41715 12.0359 1.4362 11.8845 1.49744L11.8844 1.49751L1.43229 5.7174C1.432 5.71752 1.43171 5.71764 1.43142 5.71776C1.26295 5.78728 1.11954 5.90631 1.02018 6.05911C0.920645 6.21218 0.870017 6.3919 0.875012 6.57441C0.880007 6.75692 0.940389 6.9336 1.04814 7.08099C1.15589 7.22837 1.3059 7.3395 1.47828 7.39964C1.47829 7.39964 1.47831 7.39965 1.47833 7.39965L3.59266 8.135L3.73302 8.18381L3.77603 8.32606L4.95425 12.2223C4.95431 12.2225 4.95437 12.2227 4.95443 12.2229C4.961 12.2441 4.96995 12.2644 4.98112 12.2835C4.98592 12.2893 4.99198 12.2969 4.99843 12.306L4.76024 12.4743L4.9973 12.3044C5.01431 12.3282 5.03486 12.3491 5.05825 12.3666L5.06035 12.3682C5.073 12.3779 5.07738 12.3809 5.08036 12.3828L5.08558 12.3861L5.08554 12.3861C5.1076 12.4008 5.13158 12.4122 5.15677 12.4202L5.1839 12.4225L5.19909 12.429C5.20503 12.4297 5.21099 12.4302 5.21697 12.4306C5.22398 12.4299 5.23166 12.4294 5.23989 12.4293L5.24017 12.4293C5.2658 12.4288 5.29123 12.425 5.3158 12.4178L5.31804 12.4166C5.32412 12.4136 5.33331 12.4091 5.34439 12.4044L5.34647 12.4035L5.34648 12.4035C5.36482 12.3959 5.38231 12.3865 5.39869 12.3753L5.46316 12.321L7.02619 10.5953L7.20748 10.3951L7.42098 10.5605L9.77197 12.3817L9.77253 12.3821C9.92835 12.5035 10.1201 12.5694 10.3176 12.5696L12.8013 1.64077ZM12.8013 1.64077C12.9259 1.74398 13.0201 1.87912 13.0738 2.03173C13.1275 2.18434 13.1387 2.34867 13.1061 2.50715L13.1061 2.50754L11.2032 11.8489L11.4886 11.9087M12.8013 1.64077L13.3919 2.56575L11.4886 11.9087M11.4886 11.9087L11.2028 11.8505L11.203 11.8497M11.4886 11.9087C11.4323 12.1778 11.2851 12.4192 11.0719 12.5926L11.203 11.8497M11.203 11.8497C11.1602 12.0529 11.049 12.2353 10.8879 12.3663C10.7267 12.4974 10.5254 12.5692 10.3176 12.5696L11.203 11.8497ZM4.96782 12.2684C4.96743 12.268 4.96748 12.268 4.96785 12.2685L4.96782 12.2684ZM5.67143 8.80284L5.67188 8.80239L7.24642 7.2273L6.90543 6.7624L4.53404 7.99729L4.31959 8.10896L4.38957 8.3404L4.84693 9.85302L5.4118 9.8274L5.59235 8.95007L5.59248 8.94943C5.60378 8.89386 5.63125 8.84286 5.67143 8.80284ZM10.1297 11.9206L10.499 12.2067L10.5939 11.7492L12.5347 2.39198L12.645 1.86023L12.1408 2.06195L1.65333 6.25752L0.946097 6.54045L1.66143 6.80222L3.83397 7.59725L3.95479 7.64147L4.0689 7.58205L9.99865 4.49469L9.99888 4.49457C10.0606 4.46234 10.1319 4.45329 10.1998 4.46908C10.2676 4.48486 10.3276 4.52443 10.3688 4.58061C10.41 4.63679 10.4297 4.70587 10.4244 4.77533C10.4191 4.8448 10.389 4.91006 10.3397 4.95929L10.3396 4.95943L6.20784 9.09118L6.14602 9.153L6.1284 9.23864L5.95 10.1057L5.73477 11.1518L6.45183 10.3603L6.95641 9.80341C6.95647 9.80334 6.95654 9.80327 6.9566 9.8032C7.00603 9.74888 7.07409 9.71514 7.14726 9.7087C7.22046 9.70226 7.2934 9.72361 7.35157 9.7685C7.35162 9.76854 7.35167 9.76858 7.35172 9.76861L10.1297 11.9206Z" fill="white" stroke="white" stroke-width="0.583333"/>
</svg>
