<svg width="853" height="572" viewBox="0 0 853 572" fill="none" xmlns="http://www.w3.org/2000/svg">
<g filter="url(#filter0_d_1660_4777)">
<path d="M259.518 447.688C234.99 421.611 216.992 390.092 207 355.715C197.009 321.337 195.308 285.081 202.038 249.92L293.248 267.378C289.277 288.123 290.28 309.514 296.175 329.797C302.07 350.079 312.689 368.676 327.161 384.061L259.518 447.688Z" fill="#40C9FF"/>
</g>
<g filter="url(#filter1_d_1660_4777)">
<path d="M202.014 250.047C212.801 193.517 244.701 143.213 291.236 109.353L345.874 184.443C318.419 204.42 299.597 234.1 293.233 267.453L202.014 250.047Z" fill="#149FD6"/>
</g>
<g filter="url(#filter2_d_1660_4777)">
<path d="M291.339 109.277C330.032 81.1567 376.634 66.0071 424.466 66L424.48 158.865C396.259 158.869 368.764 167.807 345.935 184.399L291.339 109.277Z" fill="#128CBC"/>
</g>
<g filter="url(#filter3_d_1660_4777)">
<path d="M424.5 66C467.24 66 509.107 78.0925 545.265 100.88L495.751 179.444C474.418 166 449.716 158.865 424.5 158.865V66Z" fill="#09729B"/>
</g>
<g filter="url(#filter4_d_1660_4777)">
<path d="M545.231 100.859C569.384 116.075 590.444 135.721 607.3 158.76L532.352 213.594C522.407 200 509.982 188.409 495.731 179.432L545.231 100.859Z" fill="#086589"/>
</g>
<g filter="url(#filter5_d_1660_4777)">
<path d="M605.867 156.823C620.104 175.854 631.257 197.008 638.917 219.508L551.006 249.435C546.487 236.16 539.906 223.679 531.506 212.45L605.867 156.823Z" fill="#06465F"/>
</g>
<g filter="url(#filter6_d_1660_4777)">
<path d="M638.599 218.582C646.68 241.988 650.868 266.561 650.997 291.323L558.133 291.806C558.057 277.196 555.586 262.698 550.818 248.888L638.599 218.582Z" fill="#053A4F"/>
</g>
<g filter="url(#filter7_d_1660_4777)">
<path d="M467.236 514.932C429.757 522.132 391.067 519.747 354.758 507.995C318.449 496.244 285.697 475.509 259.544 447.715L327.176 384.077C342.606 400.476 361.93 412.709 383.352 419.642C404.775 426.575 427.602 427.983 449.714 423.735L467.236 514.932Z" fill="#4CC8F9"/>
</g>
<g filter="url(#filter8_d_1660_4777)">
<path d="M651 292.5C651 345.166 632.647 396.186 599.098 436.784C565.549 477.382 518.901 505.019 467.178 514.943L449.68 423.741C480.197 417.886 507.719 401.58 527.513 377.627C547.307 353.675 558.135 323.573 558.135 292.5H651Z" fill="#84DCFF"/>
</g>
<path d="M390.357 251.242V252.548H387.76V261H386.159V252.548H383.548V251.242H390.357ZM395.333 261.126C394.603 261.126 393.944 260.963 393.354 260.635C392.764 260.298 392.301 259.83 391.964 259.231C391.627 258.623 391.458 257.921 391.458 257.125C391.458 256.339 391.632 255.641 391.978 255.033C392.324 254.425 392.797 253.957 393.396 253.629C393.995 253.301 394.664 253.138 395.404 253.138C396.143 253.138 396.812 253.301 397.411 253.629C398.01 253.957 398.483 254.425 398.829 255.033C399.176 255.641 399.349 256.339 399.349 257.125C399.349 257.911 399.171 258.609 398.815 259.217C398.46 259.825 397.973 260.298 397.355 260.635C396.747 260.963 396.073 261.126 395.333 261.126ZM395.333 259.736C395.745 259.736 396.129 259.638 396.485 259.442C396.85 259.245 397.145 258.95 397.369 258.557C397.594 258.164 397.706 257.687 397.706 257.125C397.706 256.563 397.599 256.091 397.383 255.707C397.168 255.314 396.883 255.019 396.527 254.822C396.171 254.626 395.787 254.528 395.376 254.528C394.964 254.528 394.58 254.626 394.224 254.822C393.878 255.019 393.602 255.314 393.396 255.707C393.19 256.091 393.087 256.563 393.087 257.125C393.087 257.958 393.298 258.604 393.719 259.062C394.149 259.512 394.688 259.736 395.333 259.736ZM402.798 254.57V258.852C402.798 259.142 402.864 259.353 402.995 259.484C403.135 259.605 403.369 259.666 403.697 259.666H404.68V261H403.416C402.696 261 402.143 260.832 401.76 260.495C401.376 260.158 401.184 259.61 401.184 258.852V254.57H400.271V253.264H401.184V251.34H402.798V253.264H404.68V254.57H402.798ZM405.622 257.097C405.622 256.32 405.781 255.632 406.099 255.033C406.426 254.434 406.866 253.971 407.419 253.643C407.98 253.306 408.598 253.138 409.272 253.138C409.88 253.138 410.409 253.259 410.858 253.503C411.317 253.737 411.682 254.031 411.954 254.387V253.264H413.568V261H411.954V259.849C411.682 260.214 411.312 260.518 410.844 260.761C410.376 261.005 409.843 261.126 409.244 261.126C408.579 261.126 407.971 260.958 407.419 260.621C406.866 260.275 406.426 259.797 406.099 259.189C405.781 258.571 405.622 257.874 405.622 257.097ZM411.954 257.125C411.954 256.591 411.841 256.128 411.617 255.735C411.401 255.342 411.116 255.042 410.76 254.836C410.404 254.631 410.021 254.528 409.609 254.528C409.197 254.528 408.813 254.631 408.458 254.836C408.102 255.033 407.812 255.328 407.587 255.721C407.372 256.105 407.264 256.563 407.264 257.097C407.264 257.63 407.372 258.098 407.587 258.501C407.812 258.903 408.102 259.212 408.458 259.428C408.823 259.633 409.206 259.736 409.609 259.736C410.021 259.736 410.404 259.633 410.76 259.428C411.116 259.222 411.401 258.922 411.617 258.529C411.841 258.126 411.954 257.658 411.954 257.125ZM417.271 250.61V261H415.67V250.61H417.271ZM426.235 261.098C425.579 261.098 424.99 260.986 424.466 260.761C423.941 260.527 423.53 260.2 423.23 259.779C422.931 259.357 422.781 258.866 422.781 258.304H424.494C424.531 258.726 424.695 259.072 424.985 259.343C425.285 259.615 425.701 259.75 426.235 259.75C426.787 259.75 427.217 259.619 427.526 259.357C427.835 259.086 427.99 258.74 427.99 258.318C427.99 257.991 427.891 257.724 427.695 257.518C427.508 257.312 427.269 257.153 426.979 257.041C426.698 256.928 426.305 256.807 425.799 256.676C425.163 256.507 424.643 256.339 424.241 256.17C423.848 255.992 423.511 255.721 423.23 255.356C422.949 254.991 422.809 254.504 422.809 253.896C422.809 253.334 422.949 252.843 423.23 252.422C423.511 252 423.904 251.677 424.409 251.453C424.915 251.228 425.5 251.116 426.164 251.116C427.11 251.116 427.882 251.355 428.481 251.832C429.089 252.3 429.426 252.946 429.492 253.769H427.723C427.695 253.414 427.526 253.11 427.217 252.857C426.909 252.604 426.501 252.478 425.996 252.478C425.537 252.478 425.163 252.595 424.873 252.829C424.583 253.063 424.438 253.4 424.438 253.84C424.438 254.139 424.526 254.387 424.704 254.584C424.891 254.771 425.125 254.921 425.406 255.033C425.687 255.145 426.071 255.267 426.558 255.398C427.203 255.576 427.728 255.754 428.13 255.932C428.542 256.109 428.888 256.386 429.169 256.76C429.459 257.125 429.604 257.616 429.604 258.234C429.604 258.73 429.469 259.198 429.197 259.638C428.935 260.078 428.547 260.434 428.032 260.705C427.526 260.967 426.927 261.098 426.235 261.098ZM438.499 253.264V261H436.898V260.087C436.646 260.406 436.313 260.658 435.901 260.846C435.499 261.023 435.068 261.112 434.61 261.112C434.001 261.112 433.454 260.986 432.967 260.733C432.49 260.481 432.111 260.106 431.83 259.61C431.558 259.114 431.423 258.515 431.423 257.813V253.264H433.009V257.574C433.009 258.267 433.182 258.8 433.529 259.175C433.875 259.54 434.348 259.722 434.947 259.722C435.546 259.722 436.018 259.54 436.365 259.175C436.72 258.8 436.898 258.267 436.898 257.574V253.264H438.499ZM442.211 254.401C442.483 254.046 442.852 253.746 443.32 253.503C443.788 253.259 444.317 253.138 444.907 253.138C445.581 253.138 446.194 253.306 446.746 253.643C447.308 253.971 447.748 254.434 448.066 255.033C448.384 255.632 448.543 256.32 448.543 257.097C448.543 257.874 448.384 258.571 448.066 259.189C447.748 259.797 447.308 260.275 446.746 260.621C446.194 260.958 445.581 261.126 444.907 261.126C444.317 261.126 443.793 261.009 443.334 260.775C442.876 260.532 442.501 260.232 442.211 259.877V264.678H440.611V253.264H442.211V254.401ZM446.915 257.097C446.915 256.563 446.802 256.105 446.578 255.721C446.362 255.328 446.072 255.033 445.707 254.836C445.351 254.631 444.968 254.528 444.556 254.528C444.153 254.528 443.77 254.631 443.405 254.836C443.049 255.042 442.759 255.342 442.534 255.735C442.319 256.128 442.211 256.591 442.211 257.125C442.211 257.658 442.319 258.126 442.534 258.529C442.759 258.922 443.049 259.222 443.405 259.428C443.77 259.633 444.153 259.736 444.556 259.736C444.968 259.736 445.351 259.633 445.707 259.428C446.072 259.212 446.362 258.903 446.578 258.501C446.802 258.098 446.915 257.63 446.915 257.097ZM451.727 254.401C451.998 254.046 452.368 253.746 452.836 253.503C453.304 253.259 453.833 253.138 454.422 253.138C455.096 253.138 455.709 253.306 456.261 253.643C456.823 253.971 457.263 254.434 457.581 255.033C457.899 255.632 458.059 256.32 458.059 257.097C458.059 257.874 457.899 258.571 457.581 259.189C457.263 259.797 456.823 260.275 456.261 260.621C455.709 260.958 455.096 261.126 454.422 261.126C453.833 261.126 453.308 261.009 452.85 260.775C452.391 260.532 452.017 260.232 451.727 259.877V264.678H450.126V253.264H451.727V254.401ZM456.43 257.097C456.43 256.563 456.318 256.105 456.093 255.721C455.878 255.328 455.588 255.033 455.223 254.836C454.867 254.631 454.483 254.528 454.071 254.528C453.669 254.528 453.285 254.631 452.92 254.836C452.564 255.042 452.274 255.342 452.049 255.735C451.834 256.128 451.727 256.591 451.727 257.125C451.727 257.658 451.834 258.126 452.049 258.529C452.274 258.922 452.564 259.222 452.92 259.428C453.285 259.633 453.669 259.736 454.071 259.736C454.483 259.736 454.867 259.633 455.223 259.428C455.588 259.212 455.878 258.903 456.093 258.501C456.318 258.098 456.43 257.63 456.43 257.097ZM461.242 250.61V261H459.641V250.61H461.242ZM470.307 253.264L465.562 264.636H463.905L465.477 260.874L462.431 253.264H464.214L466.39 259.161L468.65 253.264H470.307Z" fill="#323232"/>
<path d="M335.685 292.998V285.201H349.269V321H340.54V292.998H335.685ZM387.074 303.346C389.068 303.771 390.67 304.768 391.88 306.337C393.09 307.874 393.694 309.639 393.694 311.633C393.694 314.51 392.681 316.799 390.654 318.499C388.66 320.166 385.864 321 382.268 321H366.232V286.574H381.729C385.227 286.574 387.957 287.375 389.918 288.977C391.913 290.579 392.91 292.753 392.91 295.499C392.91 297.526 392.37 299.21 391.291 300.55C390.245 301.891 388.839 302.823 387.074 303.346ZM374.618 300.501H380.11C381.483 300.501 382.53 300.207 383.249 299.619C384.001 298.997 384.377 298.098 384.377 296.921C384.377 295.744 384.001 294.845 383.249 294.224C382.53 293.603 381.483 293.292 380.11 293.292H374.618V300.501ZM380.797 314.232C382.203 314.232 383.282 313.922 384.033 313.301C384.818 312.647 385.21 311.715 385.21 310.505C385.21 309.296 384.802 308.348 383.984 307.661C383.2 306.975 382.105 306.631 380.699 306.631H374.618V314.232H380.797ZM402.776 290.791C401.304 290.791 400.095 290.366 399.147 289.516C398.231 288.634 397.773 287.555 397.773 286.28C397.773 284.972 398.231 283.893 399.147 283.043C400.095 282.16 401.304 281.719 402.776 281.719C404.214 281.719 405.391 282.16 406.306 283.043C407.255 283.893 407.729 284.972 407.729 286.28C407.729 287.555 407.255 288.634 406.306 289.516C405.391 290.366 404.214 290.791 402.776 290.791ZM406.944 293.636V321H398.558V293.636H406.944ZM421.407 284.71V321H413.021V284.71H421.407ZM435.87 284.71V321H427.484V284.71H435.87ZM446.164 290.791C444.693 290.791 443.484 290.366 442.535 289.516C441.62 288.634 441.162 287.555 441.162 286.28C441.162 284.972 441.62 283.893 442.535 283.043C443.484 282.16 444.693 281.719 446.164 281.719C447.603 281.719 448.78 282.16 449.695 283.043C450.643 283.893 451.117 284.972 451.117 286.28C451.117 287.555 450.643 288.634 449.695 289.516C448.78 290.366 447.603 290.791 446.164 290.791ZM450.333 293.636V321H441.947V293.636H450.333ZM468.866 321.392C466.185 321.392 463.766 320.82 461.608 319.676C459.483 318.532 457.799 316.897 456.557 314.772C455.347 312.647 454.743 310.162 454.743 307.318C454.743 304.506 455.364 302.038 456.606 299.913C457.848 297.755 459.549 296.104 461.706 294.96C463.864 293.815 466.283 293.243 468.964 293.243C471.645 293.243 474.064 293.815 476.222 294.96C478.38 296.104 480.08 297.755 481.322 299.913C482.565 302.038 483.186 304.506 483.186 307.318C483.186 310.129 482.548 312.614 481.273 314.772C480.031 316.897 478.315 318.532 476.124 319.676C473.966 320.82 471.547 321.392 468.866 321.392ZM468.866 314.134C470.468 314.134 471.825 313.546 472.936 312.369C474.081 311.192 474.653 309.508 474.653 307.318C474.653 305.127 474.097 303.444 472.985 302.267C471.907 301.09 470.566 300.501 468.964 300.501C467.33 300.501 465.973 301.09 464.894 302.267C463.815 303.411 463.276 305.095 463.276 307.318C463.276 309.508 463.799 311.192 464.845 312.369C465.924 313.546 467.264 314.134 468.866 314.134ZM504.308 293.341C507.512 293.341 510.062 294.388 511.958 296.48C513.887 298.54 514.852 301.384 514.852 305.013V321H506.515V306.141C506.515 304.31 506.041 302.888 505.093 301.874C504.145 300.861 502.87 300.354 501.268 300.354C499.666 300.354 498.391 300.861 497.443 301.874C496.495 302.888 496.02 304.31 496.02 306.141V321H487.635V293.636H496.02V297.265C496.871 296.055 498.015 295.107 499.453 294.42C500.892 293.701 502.51 293.341 504.308 293.341Z" fill="#139ED5"/>
<circle cx="424" cy="293" r="268" stroke="#139ED5" stroke-width="4"/>
<rect x="664.383" y="232.383" width="188.235" height="46.2348" rx="6.50422" fill="#053A4F" stroke="url(#paint0_linear_1660_4777)" stroke-width="0.765203"/>
<rect x="638.383" y="147.383" width="194.235" height="46.2348" rx="6.50422" fill="#074760" stroke="url(#paint1_linear_1660_4777)" stroke-width="0.765203"/>
<rect x="585.383" y="66.3826" width="153.235" height="46.2348" rx="6.50422" fill="#086589" stroke="url(#paint2_linear_1660_4777)" stroke-width="0.765203"/>
<rect x="471.383" y="0.382601" width="164.235" height="46.2348" rx="6.50422" fill="#09729B" stroke="url(#paint3_linear_1660_4777)" stroke-width="0.765203"/>
<rect x="175.383" y="7.3826" width="176.235" height="46.2348" rx="6.50422" fill="#128CBC" stroke="url(#paint4_linear_1660_4777)" stroke-width="0.765203"/>
<rect x="55.3826" y="126.383" width="157.235" height="46.2348" rx="6.50422" fill="#149FD6" stroke="url(#paint5_linear_1660_4777)" stroke-width="0.765203"/>
<rect x="0.382601" y="345.383" width="184.235" height="46.2348" rx="6.50422" fill="#40C9FF" stroke="url(#paint6_linear_1660_4777)" stroke-width="0.765203"/>
<rect x="151.383" y="525.383" width="203.235" height="46.2348" rx="6.50422" fill="#4CC8F9" stroke="url(#paint7_linear_1660_4777)" stroke-width="0.765203"/>
<rect x="620.383" y="432.383" width="217.235" height="46.2348" rx="6.50422" fill="#84DCFF" stroke="url(#paint8_linear_1660_4777)" stroke-width="0.765203"/>
<path d="M638.007 459.731C639.331 458.627 640.387 457.71 641.173 456.979C641.959 456.234 642.614 455.462 643.138 454.661C643.663 453.861 643.925 453.075 643.925 452.303C643.925 451.599 643.759 451.047 643.428 450.647C643.097 450.247 642.587 450.047 641.897 450.047C641.207 450.047 640.676 450.282 640.304 450.751C639.931 451.206 639.738 451.834 639.724 452.634H636.91C636.966 450.978 637.455 449.723 638.379 448.868C639.317 448.013 640.504 447.585 641.938 447.585C643.511 447.585 644.718 448.006 645.559 448.847C646.401 449.675 646.821 450.772 646.821 452.137C646.821 453.213 646.532 454.241 645.952 455.22C645.373 456.2 644.711 457.055 643.966 457.786C643.221 458.503 642.249 459.372 641.049 460.393H647.152V462.793H636.931V460.641L638.007 459.731ZM649.888 459.731C651.212 458.627 652.268 457.71 653.054 456.979C653.84 456.234 654.495 455.462 655.02 454.661C655.544 453.861 655.806 453.075 655.806 452.303C655.806 451.599 655.64 451.047 655.309 450.647C654.978 450.247 654.468 450.047 653.778 450.047C653.088 450.047 652.557 450.282 652.185 450.751C651.813 451.206 651.619 451.834 651.606 452.634H648.792C648.847 450.978 649.336 449.723 650.261 448.868C651.199 448.013 652.385 447.585 653.82 447.585C655.392 447.585 656.599 448.006 657.44 448.847C658.282 449.675 658.703 450.772 658.703 452.137C658.703 453.213 658.413 454.241 657.834 455.22C657.254 456.2 656.592 457.055 655.847 457.786C655.102 458.503 654.13 459.372 652.93 460.393H659.034V462.793H648.812V460.641L649.888 459.731ZM662.473 463.145C661.949 463.145 661.514 462.986 661.169 462.669C660.838 462.338 660.673 461.931 660.673 461.448C660.673 460.965 660.838 460.565 661.169 460.248C661.514 459.917 661.949 459.752 662.473 459.752C662.983 459.752 663.404 459.917 663.735 460.248C664.066 460.565 664.232 460.965 664.232 461.448C664.232 461.931 664.066 462.338 663.735 462.669C663.404 462.986 662.983 463.145 662.473 463.145ZM666.234 455.262C666.234 452.875 666.661 451.006 667.517 449.654C668.386 448.302 669.82 447.627 671.82 447.627C673.821 447.627 675.248 448.302 676.104 449.654C676.973 451.006 677.407 452.875 677.407 455.262C677.407 457.662 676.973 459.545 676.104 460.91C675.248 462.276 673.821 462.959 671.82 462.959C669.82 462.959 668.386 462.276 667.517 460.91C666.661 459.545 666.234 457.662 666.234 455.262ZM674.552 455.262C674.552 454.241 674.483 453.386 674.345 452.696C674.221 451.992 673.959 451.42 673.559 450.978C673.172 450.537 672.593 450.316 671.82 450.316C671.048 450.316 670.462 450.537 670.062 450.978C669.675 451.42 669.413 451.992 669.275 452.696C669.151 453.386 669.089 454.241 669.089 455.262C669.089 456.31 669.151 457.193 669.275 457.91C669.4 458.613 669.662 459.186 670.062 459.627C670.462 460.055 671.048 460.269 671.82 460.269C672.593 460.269 673.179 460.055 673.579 459.627C673.979 459.186 674.241 458.613 674.365 457.91C674.49 457.193 674.552 456.31 674.552 455.262ZM679.279 451.62C679.279 450.572 679.583 449.751 680.19 449.158C680.81 448.565 681.604 448.268 682.569 448.268C683.535 448.268 684.321 448.565 684.928 449.158C685.549 449.751 685.859 450.572 685.859 451.62C685.859 452.682 685.549 453.51 684.928 454.103C684.321 454.696 683.535 454.993 682.569 454.993C681.604 454.993 680.81 454.696 680.19 454.103C679.583 453.51 679.279 452.682 679.279 451.62ZM692.563 448.516L684.431 463H681.617L689.728 448.516H692.563ZM682.548 450.006C681.79 450.006 681.41 450.544 681.41 451.62C681.41 452.71 681.79 453.255 682.548 453.255C682.921 453.255 683.211 453.123 683.417 452.861C683.624 452.585 683.728 452.172 683.728 451.62C683.728 450.544 683.335 450.006 682.548 450.006ZM688.363 459.876C688.363 458.814 688.666 457.993 689.273 457.413C689.894 456.82 690.687 456.524 691.653 456.524C692.618 456.524 693.397 456.82 693.991 457.413C694.598 457.993 694.901 458.814 694.901 459.876C694.901 460.938 694.598 461.765 693.991 462.359C693.397 462.952 692.618 463.248 691.653 463.248C690.673 463.248 689.88 462.952 689.273 462.359C688.666 461.765 688.363 460.938 688.363 459.876ZM691.632 458.262C690.846 458.262 690.452 458.8 690.452 459.876C690.452 460.965 690.846 461.51 691.632 461.51C692.404 461.51 692.791 460.965 692.791 459.876C692.791 458.8 692.404 458.262 691.632 458.262ZM709.854 450.896V454.517H714.716V456.813H709.854V460.641H715.337V463H706.957V448.537H715.337V450.896H709.854ZM717.224 457.269C717.224 456.082 717.466 455.048 717.949 454.165C718.431 453.268 719.1 452.579 719.956 452.096C720.811 451.599 721.79 451.351 722.894 451.351C724.315 451.351 725.487 451.71 726.411 452.427C727.349 453.13 727.977 454.124 728.294 455.406H725.17C725.004 454.91 724.722 454.524 724.322 454.248C723.935 453.958 723.452 453.813 722.873 453.813C722.045 453.813 721.39 454.117 720.907 454.724C720.425 455.317 720.183 456.165 720.183 457.269C720.183 458.358 720.425 459.207 720.907 459.814C721.39 460.407 722.045 460.703 722.873 460.703C724.046 460.703 724.811 460.179 725.17 459.131H728.294C727.977 460.372 727.349 461.359 726.411 462.09C725.473 462.821 724.301 463.186 722.894 463.186C721.79 463.186 720.811 462.945 719.956 462.462C719.1 461.965 718.431 461.276 717.949 460.393C717.466 459.496 717.224 458.455 717.224 457.269ZM735.506 463.186C734.403 463.186 733.41 462.945 732.527 462.462C731.644 461.965 730.947 461.269 730.437 460.372C729.94 459.476 729.692 458.441 729.692 457.269C729.692 456.096 729.947 455.062 730.458 454.165C730.982 453.268 731.692 452.579 732.589 452.096C733.485 451.599 734.486 451.351 735.589 451.351C736.693 451.351 737.693 451.599 738.589 452.096C739.486 452.579 740.189 453.268 740.7 454.165C741.224 455.062 741.486 456.096 741.486 457.269C741.486 458.441 741.217 459.476 740.679 460.372C740.155 461.269 739.438 461.965 738.527 462.462C737.631 462.945 736.624 463.186 735.506 463.186ZM735.506 460.662C736.03 460.662 736.52 460.538 736.975 460.289C737.444 460.027 737.817 459.641 738.093 459.131C738.369 458.62 738.507 458 738.507 457.269C738.507 456.179 738.217 455.344 737.638 454.765C737.072 454.172 736.375 453.875 735.548 453.875C734.72 453.875 734.023 454.172 733.458 454.765C732.906 455.344 732.63 456.179 732.63 457.269C732.63 458.358 732.899 459.2 733.437 459.793C733.989 460.372 734.679 460.662 735.506 460.662ZM747.997 463.186C747.059 463.186 746.218 463.021 745.473 462.69C744.728 462.345 744.135 461.883 743.694 461.303C743.266 460.724 743.032 460.083 742.99 459.379H745.908C745.963 459.82 746.177 460.186 746.549 460.476C746.935 460.765 747.411 460.91 747.977 460.91C748.529 460.91 748.956 460.8 749.26 460.579C749.577 460.358 749.735 460.076 749.735 459.731C749.735 459.358 749.542 459.082 749.156 458.903C748.784 458.71 748.184 458.503 747.356 458.282C746.501 458.076 745.797 457.862 745.246 457.641C744.708 457.42 744.239 457.082 743.839 456.627C743.452 456.172 743.259 455.558 743.259 454.786C743.259 454.151 743.438 453.572 743.797 453.048C744.17 452.523 744.694 452.11 745.37 451.806C746.059 451.503 746.866 451.351 747.791 451.351C749.156 451.351 750.246 451.696 751.06 452.385C751.874 453.061 752.322 453.979 752.405 455.137H749.632C749.591 454.682 749.398 454.324 749.053 454.061C748.722 453.786 748.273 453.648 747.708 453.648C747.184 453.648 746.777 453.744 746.487 453.937C746.211 454.13 746.073 454.399 746.073 454.744C746.073 455.13 746.266 455.427 746.653 455.634C747.039 455.827 747.639 456.027 748.453 456.234C749.28 456.441 749.963 456.655 750.501 456.875C751.039 457.096 751.501 457.441 751.887 457.91C752.287 458.365 752.494 458.972 752.508 459.731C752.508 460.393 752.322 460.986 751.949 461.51C751.591 462.034 751.067 462.448 750.377 462.752C749.701 463.041 748.908 463.186 747.997 463.186ZM765.852 451.537L758.755 468.421H755.672L758.155 462.71L753.562 451.537H756.81L759.769 459.545L762.769 451.537H765.852ZM771.8 463.186C770.862 463.186 770.021 463.021 769.276 462.69C768.531 462.345 767.938 461.883 767.497 461.303C767.069 460.724 766.834 460.083 766.793 459.379H769.71C769.766 459.82 769.979 460.186 770.352 460.476C770.738 460.765 771.214 460.91 771.78 460.91C772.331 460.91 772.759 460.8 773.062 460.579C773.38 460.358 773.538 460.076 773.538 459.731C773.538 459.358 773.345 459.082 772.959 458.903C772.587 458.71 771.986 458.503 771.159 458.282C770.304 458.076 769.6 457.862 769.048 457.641C768.51 457.42 768.041 457.082 767.641 456.627C767.255 456.172 767.062 455.558 767.062 454.786C767.062 454.151 767.241 453.572 767.6 453.048C767.972 452.523 768.497 452.11 769.172 451.806C769.862 451.503 770.669 451.351 771.593 451.351C772.959 451.351 774.049 451.696 774.863 452.385C775.676 453.061 776.125 453.979 776.207 455.137H773.435C773.393 454.682 773.2 454.324 772.856 454.061C772.524 453.786 772.076 453.648 771.511 453.648C770.986 453.648 770.579 453.744 770.29 453.937C770.014 454.13 769.876 454.399 769.876 454.744C769.876 455.13 770.069 455.427 770.455 455.634C770.842 455.827 771.442 456.027 772.255 456.234C773.083 456.441 773.766 456.655 774.304 456.875C774.842 457.096 775.304 457.441 775.69 457.91C776.09 458.365 776.297 458.972 776.311 459.731C776.311 460.393 776.125 460.986 775.752 461.51C775.394 462.034 774.869 462.448 774.18 462.752C773.504 463.041 772.711 463.186 771.8 463.186ZM782.061 453.917V459.462C782.061 459.848 782.151 460.131 782.33 460.31C782.524 460.476 782.841 460.558 783.282 460.558H784.627V463H782.806C780.365 463 779.144 461.814 779.144 459.441V453.917H777.778V451.537H779.144V448.702H782.061V451.537H784.627V453.917H782.061ZM797.367 457.02C797.367 457.434 797.339 457.807 797.284 458.138H788.904C788.973 458.965 789.263 459.614 789.773 460.083C790.283 460.552 790.911 460.786 791.656 460.786C792.732 460.786 793.497 460.324 793.952 459.4H797.077C796.746 460.503 796.111 461.414 795.173 462.131C794.235 462.834 793.083 463.186 791.718 463.186C790.614 463.186 789.621 462.945 788.738 462.462C787.869 461.965 787.187 461.269 786.69 460.372C786.207 459.476 785.966 458.441 785.966 457.269C785.966 456.082 786.207 455.041 786.69 454.144C787.173 453.248 787.849 452.558 788.718 452.075C789.587 451.592 790.587 451.351 791.718 451.351C792.808 451.351 793.78 451.585 794.635 452.054C795.504 452.523 796.173 453.192 796.642 454.061C797.125 454.917 797.367 455.903 797.367 457.02ZM794.366 456.193C794.353 455.448 794.084 454.855 793.559 454.413C793.035 453.958 792.394 453.73 791.635 453.73C790.918 453.73 790.311 453.951 789.814 454.393C789.331 454.82 789.035 455.42 788.925 456.193H794.366ZM813.716 451.372C815.123 451.372 816.254 451.806 817.11 452.675C817.979 453.53 818.413 454.73 818.413 456.275V463H815.516V456.669C815.516 455.772 815.289 455.089 814.834 454.62C814.378 454.137 813.758 453.896 812.971 453.896C812.185 453.896 811.558 454.137 811.089 454.62C810.633 455.089 810.406 455.772 810.406 456.669V463H807.509V456.669C807.509 455.772 807.281 455.089 806.826 454.62C806.371 454.137 805.75 453.896 804.964 453.896C804.164 453.896 803.529 454.137 803.06 454.62C802.605 455.089 802.378 455.772 802.378 456.669V463H799.481V451.537H802.378V452.923C802.75 452.441 803.226 452.061 803.805 451.785C804.398 451.51 805.047 451.372 805.75 451.372C806.647 451.372 807.447 451.565 808.15 451.951C808.854 452.323 809.399 452.861 809.785 453.565C810.157 452.903 810.695 452.372 811.399 451.972C812.116 451.572 812.889 451.372 813.716 451.372Z" fill="white"/>
<path d="M163.559 544.185V540.896H169.29V556H165.607V544.185H163.559ZM179.18 544.972C179.07 544.461 178.876 544.082 178.601 543.834C178.325 543.572 177.932 543.441 177.421 543.441C176.635 543.441 176.069 543.785 175.725 544.475C175.38 545.151 175.2 546.227 175.187 547.703C175.49 547.22 175.925 546.841 176.49 546.565C177.069 546.289 177.704 546.151 178.394 546.151C179.745 546.151 180.828 546.579 181.642 547.434C182.47 548.289 182.884 549.482 182.884 551.013C182.884 552.02 182.677 552.903 182.263 553.662C181.863 554.421 181.27 555.014 180.483 555.441C179.711 555.869 178.794 556.083 177.732 556.083C175.607 556.083 174.131 555.421 173.304 554.096C172.476 552.758 172.062 550.841 172.062 548.344C172.062 545.723 172.497 543.778 173.366 542.509C174.249 541.227 175.656 540.585 177.587 540.585C178.621 540.585 179.49 540.792 180.194 541.206C180.911 541.606 181.449 542.137 181.808 542.799C182.18 543.461 182.401 544.185 182.47 544.972H179.18ZM177.545 548.944C176.952 548.944 176.456 549.124 176.056 549.482C175.669 549.827 175.476 550.324 175.476 550.972C175.476 551.634 175.656 552.151 176.014 552.524C176.387 552.896 176.911 553.083 177.587 553.083C178.194 553.083 178.67 552.903 179.014 552.545C179.373 552.172 179.552 551.669 179.552 551.034C179.552 550.386 179.38 549.875 179.035 549.503C178.69 549.131 178.194 548.944 177.545 548.944ZM186.892 556.166C186.271 556.166 185.761 555.986 185.361 555.628C184.975 555.255 184.781 554.8 184.781 554.262C184.781 553.71 184.975 553.248 185.361 552.876C185.761 552.503 186.271 552.317 186.892 552.317C187.499 552.317 187.995 552.503 188.382 552.876C188.782 553.248 188.982 553.71 188.982 554.262C188.982 554.8 188.782 555.255 188.382 555.628C187.995 555.986 187.499 556.166 186.892 556.166ZM190.724 548.241C190.724 545.868 191.18 543.999 192.09 542.634C193.014 541.268 194.497 540.585 196.539 540.585C198.58 540.585 200.056 541.268 200.967 542.634C201.891 543.999 202.353 545.868 202.353 548.241C202.353 550.641 201.891 552.524 200.967 553.89C200.056 555.255 198.58 555.938 196.539 555.938C194.497 555.938 193.014 555.255 192.09 553.89C191.18 552.524 190.724 550.641 190.724 548.241ZM198.877 548.241C198.877 546.848 198.725 545.779 198.422 545.034C198.118 544.275 197.49 543.896 196.539 543.896C195.587 543.896 194.959 544.275 194.656 545.034C194.352 545.779 194.201 546.848 194.201 548.241C194.201 549.179 194.256 549.958 194.366 550.579C194.476 551.186 194.697 551.682 195.028 552.069C195.373 552.441 195.877 552.627 196.539 552.627C197.201 552.627 197.697 552.441 198.028 552.069C198.373 551.682 198.601 551.186 198.711 550.579C198.822 549.958 198.877 549.179 198.877 548.241ZM203.932 544.703C203.932 543.585 204.25 542.723 204.884 542.116C205.533 541.509 206.367 541.206 207.388 541.206C208.409 541.206 209.236 541.509 209.871 542.116C210.505 542.723 210.823 543.585 210.823 544.703C210.823 545.82 210.505 546.682 209.871 547.289C209.236 547.896 208.409 548.199 207.388 548.199C206.367 548.199 205.533 547.896 204.884 547.289C204.25 546.682 203.932 545.82 203.932 544.703ZM217.982 541.433L210.016 556H206.602L214.568 541.433H217.982ZM207.367 543.275C206.705 543.275 206.374 543.751 206.374 544.703C206.374 545.641 206.705 546.11 207.367 546.11C207.684 546.11 207.933 545.992 208.112 545.758C208.291 545.523 208.381 545.172 208.381 544.703C208.381 543.751 208.043 543.275 207.367 543.275ZM213.781 552.731C213.781 551.613 214.099 550.751 214.733 550.144C215.368 549.537 216.195 549.234 217.216 549.234C218.237 549.234 219.065 549.537 219.699 550.144C220.334 550.751 220.651 551.613 220.651 552.731C220.651 553.848 220.334 554.71 219.699 555.317C219.065 555.924 218.237 556.228 217.216 556.228C216.195 556.228 215.368 555.924 214.733 555.317C214.099 554.71 213.781 553.848 213.781 552.731ZM217.195 551.303C216.878 551.303 216.63 551.42 216.451 551.655C216.285 551.889 216.202 552.248 216.202 552.731C216.202 553.669 216.533 554.138 217.195 554.138C217.513 554.138 217.761 554.021 217.94 553.786C218.12 553.552 218.209 553.2 218.209 552.731C218.209 552.262 218.12 551.91 217.94 551.676C217.761 551.427 217.513 551.303 217.195 551.303ZM246.079 544.33C247.514 544.33 248.652 544.765 249.493 545.634C250.348 546.503 250.776 547.71 250.776 549.255V556H247.258V549.731C247.258 548.986 247.058 548.413 246.658 548.013C246.272 547.599 245.734 547.393 245.045 547.393C244.355 547.393 243.81 547.599 243.41 548.013C243.024 548.413 242.831 548.986 242.831 549.731V556H239.313V549.731C239.313 548.986 239.113 548.413 238.713 548.013C238.327 547.599 237.789 547.393 237.099 547.393C236.409 547.393 235.865 547.599 235.465 548.013C235.078 548.413 234.885 548.986 234.885 549.731V556H231.347V544.454H234.885V545.903C235.244 545.42 235.713 545.041 236.292 544.765C236.872 544.475 237.527 544.33 238.258 544.33C239.127 544.33 239.899 544.516 240.575 544.889C241.265 545.261 241.803 545.792 242.189 546.482C242.589 545.848 243.134 545.33 243.824 544.93C244.513 544.53 245.265 544.33 246.079 544.33ZM252.547 550.206C252.547 549.02 252.768 547.979 253.209 547.082C253.664 546.186 254.278 545.496 255.051 545.013C255.823 544.53 256.685 544.289 257.637 544.289C258.451 544.289 259.161 544.454 259.768 544.785C260.389 545.116 260.865 545.551 261.196 546.089V544.454H264.734V556H261.196V554.365C260.851 554.903 260.368 555.338 259.747 555.669C259.141 556 258.43 556.166 257.616 556.166C256.678 556.166 255.823 555.924 255.051 555.441C254.278 554.945 253.664 554.248 253.209 553.352C252.768 552.441 252.547 551.393 252.547 550.206ZM261.196 550.227C261.196 549.344 260.948 548.648 260.451 548.137C259.968 547.627 259.375 547.372 258.672 547.372C257.968 547.372 257.368 547.627 256.871 548.137C256.389 548.634 256.147 549.324 256.147 550.206C256.147 551.089 256.389 551.793 256.871 552.317C257.368 552.827 257.968 553.083 258.672 553.083C259.375 553.083 259.968 552.827 260.451 552.317C260.948 551.807 261.196 551.11 261.196 550.227ZM270.832 546.379C271.246 545.744 271.763 545.248 272.384 544.889C273.004 544.516 273.694 544.33 274.453 544.33V548.075H273.48C272.598 548.075 271.935 548.268 271.494 548.655C271.053 549.027 270.832 549.689 270.832 550.641V556H267.294V544.454H270.832V546.379ZM283.2 556L279.682 551.158V556H276.144V540.689H279.682V549.151L283.179 544.454H287.545L282.744 550.248L287.586 556H283.2ZM299.818 550.041C299.818 550.372 299.797 550.717 299.756 551.076H291.748C291.804 551.793 292.031 552.345 292.431 552.731C292.845 553.103 293.349 553.289 293.942 553.289C294.825 553.289 295.438 552.917 295.783 552.172H299.549C299.356 552.931 299.004 553.614 298.494 554.221C297.997 554.828 297.37 555.303 296.611 555.648C295.852 555.993 295.004 556.166 294.066 556.166C292.935 556.166 291.928 555.924 291.045 555.441C290.162 554.959 289.472 554.269 288.976 553.372C288.479 552.476 288.231 551.427 288.231 550.227C288.231 549.027 288.472 547.979 288.955 547.082C289.452 546.186 290.141 545.496 291.024 545.013C291.907 544.53 292.921 544.289 294.066 544.289C295.183 544.289 296.176 544.523 297.045 544.992C297.914 545.461 298.59 546.13 299.073 546.999C299.57 547.868 299.818 548.882 299.818 550.041ZM296.197 549.11C296.197 548.503 295.99 548.02 295.576 547.661C295.163 547.303 294.645 547.124 294.024 547.124C293.431 547.124 292.928 547.296 292.514 547.641C292.114 547.986 291.866 548.475 291.769 549.11H296.197ZM308.119 553V556H306.319C305.037 556 304.036 555.69 303.319 555.069C302.602 554.434 302.243 553.407 302.243 551.986V547.393H300.836V544.454H302.243V541.64H305.781V544.454H308.099V547.393H305.781V552.027C305.781 552.372 305.864 552.62 306.03 552.772C306.195 552.924 306.471 553 306.857 553H308.119ZM311.87 543.254C311.249 543.254 310.739 543.075 310.339 542.716C309.952 542.344 309.759 541.889 309.759 541.351C309.759 540.799 309.952 540.344 310.339 539.985C310.739 539.613 311.249 539.426 311.87 539.426C312.477 539.426 312.973 539.613 313.36 539.985C313.76 540.344 313.96 540.799 313.96 541.351C313.96 541.889 313.76 542.344 313.36 542.716C312.973 543.075 312.477 543.254 311.87 543.254ZM313.628 544.454V556H310.09V544.454H313.628ZM323.228 544.33C324.579 544.33 325.655 544.772 326.455 545.654C327.269 546.523 327.676 547.724 327.676 549.255V556H324.159V549.731C324.159 548.958 323.959 548.358 323.559 547.93C323.159 547.503 322.621 547.289 321.945 547.289C321.269 547.289 320.731 547.503 320.331 547.93C319.931 548.358 319.731 548.958 319.731 549.731V556H316.193V544.454H319.731V545.986C320.089 545.475 320.572 545.075 321.179 544.785C321.786 544.482 322.469 544.33 323.228 544.33ZM334.521 544.289C335.335 544.289 336.046 544.454 336.652 544.785C337.273 545.116 337.749 545.551 338.08 546.089V544.454H341.618V555.979C341.618 557.041 341.405 558 340.977 558.855C340.563 559.724 339.922 560.414 339.053 560.924C338.197 561.435 337.128 561.69 335.846 561.69C334.135 561.69 332.749 561.283 331.687 560.469C330.624 559.669 330.018 558.579 329.866 557.2H333.363C333.473 557.641 333.735 557.986 334.149 558.235C334.563 558.497 335.073 558.628 335.68 558.628C336.411 558.628 336.99 558.414 337.418 557.986C337.859 557.573 338.08 556.904 338.08 555.979V554.345C337.735 554.883 337.259 555.324 336.652 555.669C336.046 556 335.335 556.166 334.521 556.166C333.57 556.166 332.707 555.924 331.935 555.441C331.162 554.945 330.549 554.248 330.093 553.352C329.652 552.441 329.431 551.393 329.431 550.206C329.431 549.02 329.652 547.979 330.093 547.082C330.549 546.186 331.162 545.496 331.935 545.013C332.707 544.53 333.57 544.289 334.521 544.289ZM338.08 550.227C338.08 549.344 337.832 548.648 337.335 548.137C336.853 547.627 336.259 547.372 335.556 547.372C334.852 547.372 334.252 547.627 333.756 548.137C333.273 548.634 333.032 549.324 333.032 550.206C333.032 551.089 333.273 551.793 333.756 552.317C334.252 552.827 334.852 553.083 335.556 553.083C336.259 553.083 336.853 552.827 337.335 552.317C337.832 551.807 338.08 551.11 338.08 550.227Z" fill="white"/>
<path d="M14.5587 364.185V360.896H20.2901V376H16.6071V364.185H14.5587ZM33.3457 363.978H26.8901V366.834C27.1659 366.53 27.5522 366.282 28.0488 366.089C28.5453 365.896 29.0833 365.799 29.6627 365.799C30.6972 365.799 31.5524 366.034 32.2284 366.503C32.9181 366.972 33.4215 367.579 33.7388 368.324C34.0561 369.068 34.2147 369.875 34.2147 370.744C34.2147 372.358 33.7595 373.641 32.8491 374.593C31.9387 375.531 30.6558 376 29.0005 376C27.897 376 26.9383 375.814 26.1245 375.441C25.3106 375.055 24.683 374.524 24.2416 373.848C23.8002 373.172 23.5588 372.393 23.5174 371.51H26.9728C27.0556 371.938 27.2556 372.296 27.5729 372.586C27.8901 372.862 28.3246 373 28.8764 373C29.5247 373 30.0075 372.793 30.3248 372.379C30.642 371.965 30.8007 371.413 30.8007 370.724C30.8007 370.048 30.6351 369.531 30.3041 369.172C29.973 368.813 29.4902 368.634 28.8557 368.634C28.3867 368.634 28.0005 368.751 27.697 368.986C27.3935 369.206 27.1935 369.503 27.097 369.875H23.6829V360.875H33.3457V363.978ZM38.1748 376.166C37.554 376.166 37.0437 375.986 36.6436 375.628C36.2574 375.255 36.0643 374.8 36.0643 374.262C36.0643 373.71 36.2574 373.248 36.6436 372.876C37.0437 372.503 37.554 372.317 38.1748 372.317C38.7817 372.317 39.2783 372.503 39.6645 372.876C40.0646 373.248 40.2646 373.71 40.2646 374.262C40.2646 374.8 40.0646 375.255 39.6645 375.628C39.2783 375.986 38.7817 376.166 38.1748 376.166ZM42.0073 368.241C42.0073 365.868 42.4625 363.999 43.3729 362.634C44.2971 361.268 45.78 360.585 47.8215 360.585C49.863 360.585 51.339 361.268 52.2494 362.634C53.1736 363.999 53.6357 365.868 53.6357 368.241C53.6357 370.641 53.1736 372.524 52.2494 373.89C51.339 375.255 49.863 375.938 47.8215 375.938C45.78 375.938 44.2971 375.255 43.3729 373.89C42.4625 372.524 42.0073 370.641 42.0073 368.241ZM50.1596 368.241C50.1596 366.848 50.0079 365.779 49.7044 365.034C49.4009 364.275 48.7733 363.896 47.8215 363.896C46.8697 363.896 46.2421 364.275 45.9386 365.034C45.6352 365.779 45.4834 366.848 45.4834 368.241C45.4834 369.179 45.5386 369.958 45.649 370.579C45.7593 371.186 45.98 371.682 46.3111 372.069C46.6559 372.441 47.1594 372.627 47.8215 372.627C48.4836 372.627 48.9802 372.441 49.3113 372.069C49.6561 371.682 49.8837 371.186 49.9941 370.579C50.1044 369.958 50.1596 369.179 50.1596 368.241ZM55.2153 364.703C55.2153 363.585 55.5326 362.723 56.1671 362.116C56.8155 361.509 57.65 361.206 58.6708 361.206C59.6915 361.206 60.5192 361.509 61.1537 362.116C61.7882 362.723 62.1055 363.585 62.1055 364.703C62.1055 365.82 61.7882 366.682 61.1537 367.289C60.5192 367.896 59.6915 368.199 58.6708 368.199C57.65 368.199 56.8155 367.896 56.1671 367.289C55.5326 366.682 55.2153 365.82 55.2153 364.703ZM69.2646 361.433L61.2985 376H57.8845L65.8506 361.433H69.2646ZM58.6501 363.275C57.9879 363.275 57.6569 363.751 57.6569 364.703C57.6569 365.641 57.9879 366.11 58.6501 366.11C58.9673 366.11 59.2156 365.992 59.3949 365.758C59.5743 365.523 59.6639 365.172 59.6639 364.703C59.6639 363.751 59.326 363.275 58.6501 363.275ZM65.0643 372.731C65.0643 371.613 65.3816 370.751 66.0161 370.144C66.6506 369.537 67.4783 369.234 68.499 369.234C69.5198 369.234 70.3474 369.537 70.9819 370.144C71.6165 370.751 71.9337 371.613 71.9337 372.731C71.9337 373.848 71.6165 374.71 70.9819 375.317C70.3474 375.924 69.5198 376.228 68.499 376.228C67.4783 376.228 66.6506 375.924 66.0161 375.317C65.3816 374.71 65.0643 373.848 65.0643 372.731ZM68.4783 371.303C68.1611 371.303 67.9128 371.42 67.7334 371.655C67.5679 371.889 67.4852 372.248 67.4852 372.731C67.4852 373.669 67.8162 374.138 68.4783 374.138C68.7956 374.138 69.0439 374.021 69.2232 373.786C69.4025 373.552 69.4922 373.2 69.4922 372.731C69.4922 372.262 69.4025 371.91 69.2232 371.676C69.0439 371.427 68.7956 371.303 68.4783 371.303ZM86.1681 373.269H90.8029V376H82.6299V361.475H86.1681V373.269ZM94.2699 363.254C93.6492 363.254 93.1388 363.075 92.7388 362.716C92.3525 362.344 92.1594 361.889 92.1594 361.351C92.1594 360.799 92.3525 360.344 92.7388 359.985C93.1388 359.613 93.6492 359.426 94.2699 359.426C94.8769 359.426 95.3734 359.613 95.7597 359.985C96.1597 360.344 96.3597 360.799 96.3597 361.351C96.3597 361.889 96.1597 362.344 95.7597 362.716C95.3734 363.075 94.8769 363.254 94.2699 363.254ZM96.0287 364.454V376H92.4905V364.454H96.0287ZM97.8892 370.248C97.8892 369.103 98.1237 368.082 98.5927 367.186C99.0755 366.289 99.717 365.592 100.517 365.096C101.331 364.585 102.214 364.33 103.165 364.33C103.897 364.33 104.552 364.461 105.131 364.723C105.71 364.972 106.179 365.323 106.538 365.779V364.454H110.076V381.504H106.538V374.552C106.138 375.034 105.648 375.421 105.069 375.71C104.503 376 103.855 376.145 103.124 376.145C102.186 376.145 101.317 375.897 100.517 375.4C99.717 374.903 99.0755 374.207 98.5927 373.31C98.1237 372.414 97.8892 371.393 97.8892 370.248ZM106.538 370.227C106.538 369.606 106.414 369.089 106.166 368.675C105.931 368.248 105.621 367.93 105.235 367.724C104.848 367.503 104.441 367.393 104.014 367.393C103.6 367.393 103.2 367.503 102.814 367.724C102.427 367.93 102.11 368.248 101.862 368.675C101.614 369.103 101.489 369.627 101.489 370.248C101.489 370.869 101.614 371.393 101.862 371.82C102.11 372.234 102.427 372.551 102.814 372.772C103.2 372.979 103.6 373.083 104.014 373.083C104.428 373.083 104.828 372.979 105.214 372.772C105.614 372.551 105.931 372.227 106.166 371.8C106.414 371.372 106.538 370.848 106.538 370.227ZM124.037 364.454V376H120.499V374.427C120.14 374.938 119.65 375.352 119.03 375.669C118.423 375.972 117.747 376.124 117.002 376.124C116.119 376.124 115.34 375.931 114.664 375.545C113.988 375.145 113.464 374.572 113.091 373.827C112.719 373.083 112.533 372.207 112.533 371.2V364.454H116.05V370.724C116.05 371.496 116.25 372.096 116.65 372.524C117.05 372.952 117.588 373.165 118.264 373.165C118.954 373.165 119.499 372.952 119.899 372.524C120.299 372.096 120.499 371.496 120.499 370.724V364.454H124.037ZM128.358 363.254C127.737 363.254 127.227 363.075 126.827 362.716C126.44 362.344 126.247 361.889 126.247 361.351C126.247 360.799 126.44 360.344 126.827 359.985C127.227 359.613 127.737 359.426 128.358 359.426C128.965 359.426 129.461 359.613 129.847 359.985C130.247 360.344 130.447 360.799 130.447 361.351C130.447 361.889 130.247 362.344 129.847 362.716C129.461 363.075 128.965 363.254 128.358 363.254ZM130.116 364.454V376H126.578V364.454H130.116ZM131.977 370.206C131.977 369.02 132.198 367.979 132.639 367.082C133.094 366.186 133.708 365.496 134.481 365.013C135.253 364.53 136.115 364.289 137.067 364.289C137.826 364.289 138.515 364.447 139.136 364.765C139.771 365.082 140.267 365.51 140.626 366.048V360.689H144.164V376H140.626V374.345C140.295 374.896 139.819 375.338 139.198 375.669C138.591 376 137.881 376.166 137.067 376.166C136.115 376.166 135.253 375.924 134.481 375.441C133.708 374.945 133.094 374.248 132.639 373.352C132.198 372.441 131.977 371.393 131.977 370.206ZM140.626 370.227C140.626 369.344 140.378 368.648 139.881 368.137C139.398 367.627 138.805 367.372 138.102 367.372C137.398 367.372 136.798 367.627 136.301 368.137C135.819 368.634 135.577 369.324 135.577 370.206C135.577 371.089 135.819 371.793 136.301 372.317C136.798 372.827 137.398 373.083 138.102 373.083C138.805 373.083 139.398 372.827 139.881 372.317C140.378 371.807 140.626 371.11 140.626 370.227ZM148.503 363.254C147.882 363.254 147.372 363.075 146.972 362.716C146.586 362.344 146.393 361.889 146.393 361.351C146.393 360.799 146.586 360.344 146.972 359.985C147.372 359.613 147.882 359.426 148.503 359.426C149.11 359.426 149.607 359.613 149.993 359.985C150.393 360.344 150.593 360.799 150.593 361.351C150.593 361.889 150.393 362.344 149.993 362.716C149.607 363.075 149.11 363.254 148.503 363.254ZM150.262 364.454V376H146.724V364.454H150.262ZM159.261 373V376H157.461C156.178 376 155.178 375.69 154.461 375.069C153.743 374.434 153.385 373.407 153.385 371.986V367.393H151.978V364.454H153.385V361.64H156.923V364.454H159.24V367.393H156.923V372.027C156.923 372.372 157.006 372.62 157.171 372.772C157.337 372.924 157.613 373 157.999 373H159.261ZM173.026 364.454L165.784 381.483H161.977L164.625 375.607L159.928 364.454H163.88L166.549 371.676L169.198 364.454H173.026Z" fill="white"/>
<path d="M71.5587 145.185V141.896H77.2901V157H73.6071V145.185H71.5587ZM79.5863 154.165C80.0553 153.793 80.2691 153.62 80.2277 153.648C81.5796 152.531 82.6417 151.613 83.4142 150.896C84.2004 150.179 84.8625 149.427 85.4005 148.641C85.9385 147.855 86.2075 147.089 86.2075 146.344C86.2075 145.779 86.0764 145.337 85.8143 145.02C85.5522 144.703 85.1591 144.544 84.6349 144.544C84.1108 144.544 83.6969 144.744 83.3935 145.144C83.1038 145.53 82.959 146.082 82.959 146.799H79.5449C79.5725 145.627 79.8208 144.647 80.2898 143.861C80.7726 143.075 81.4002 142.496 82.1727 142.123C82.959 141.751 83.828 141.564 84.7798 141.564C86.4213 141.564 87.6558 141.985 88.4835 142.827C89.3249 143.668 89.7456 144.765 89.7456 146.116C89.7456 147.592 89.2422 148.965 88.2352 150.234C87.2282 151.489 85.9454 152.717 84.3866 153.917H89.9732V156.793H79.5863V154.165ZM93.5381 157.166C92.9174 157.166 92.407 156.986 92.0069 156.628C91.6207 156.255 91.4276 155.8 91.4276 155.262C91.4276 154.71 91.6207 154.248 92.0069 153.876C92.407 153.503 92.9174 153.317 93.5381 153.317C94.145 153.317 94.6416 153.503 95.0278 153.876C95.4279 154.248 95.6279 154.71 95.6279 155.262C95.6279 155.8 95.4279 156.255 95.0278 156.628C94.6416 156.986 94.145 157.166 93.5381 157.166ZM97.3706 149.241C97.3706 146.868 97.8258 144.999 98.7362 143.634C99.6604 142.268 101.143 141.585 103.185 141.585C105.226 141.585 106.702 142.268 107.613 143.634C108.537 144.999 108.999 146.868 108.999 149.241C108.999 151.641 108.537 153.524 107.613 154.89C106.702 156.255 105.226 156.938 103.185 156.938C101.143 156.938 99.6604 156.255 98.7362 154.89C97.8258 153.524 97.3706 151.641 97.3706 149.241ZM105.523 149.241C105.523 147.848 105.371 146.779 105.068 146.034C104.764 145.275 104.137 144.896 103.185 144.896C102.233 144.896 101.605 145.275 101.302 146.034C100.998 146.779 100.847 147.848 100.847 149.241C100.847 150.179 100.902 150.958 101.012 151.579C101.123 152.186 101.343 152.682 101.674 153.069C102.019 153.441 102.523 153.627 103.185 153.627C103.847 153.627 104.344 153.441 104.675 153.069C105.019 152.682 105.247 152.186 105.357 151.579C105.468 150.958 105.523 150.179 105.523 149.241ZM110.579 145.703C110.579 144.585 110.896 143.723 111.53 143.116C112.179 142.509 113.013 142.206 114.034 142.206C115.055 142.206 115.882 142.509 116.517 143.116C117.152 143.723 117.469 144.585 117.469 145.703C117.469 146.82 117.152 147.682 116.517 148.289C115.882 148.896 115.055 149.199 114.034 149.199C113.013 149.199 112.179 148.896 111.53 148.289C110.896 147.682 110.579 146.82 110.579 145.703ZM124.628 142.433L116.662 157H113.248L121.214 142.433H124.628ZM114.013 144.275C113.351 144.275 113.02 144.751 113.02 145.703C113.02 146.641 113.351 147.11 114.013 147.11C114.331 147.11 114.579 146.992 114.758 146.758C114.938 146.523 115.027 146.172 115.027 145.703C115.027 144.751 114.689 144.275 114.013 144.275ZM120.428 153.731C120.428 152.613 120.745 151.751 121.379 151.144C122.014 150.537 122.842 150.234 123.862 150.234C124.883 150.234 125.711 150.537 126.345 151.144C126.98 151.751 127.297 152.613 127.297 153.731C127.297 154.848 126.98 155.71 126.345 156.317C125.711 156.924 124.883 157.228 123.862 157.228C122.842 157.228 122.014 156.924 121.379 156.317C120.745 155.71 120.428 154.848 120.428 153.731ZM123.842 152.303C123.524 152.303 123.276 152.42 123.097 152.655C122.931 152.889 122.848 153.248 122.848 153.731C122.848 154.669 123.18 155.138 123.842 155.138C124.159 155.138 124.407 155.021 124.587 154.786C124.766 154.552 124.855 154.2 124.855 153.731C124.855 153.262 124.766 152.91 124.587 152.676C124.407 152.427 124.159 152.303 123.842 152.303ZM148.442 142.475V145.31H144.594V157H141.055V145.31H137.207V142.475H148.442ZM161.101 151.041C161.101 151.372 161.081 151.717 161.039 152.076H153.032C153.087 152.793 153.315 153.345 153.715 153.731C154.129 154.103 154.632 154.289 155.225 154.289C156.108 154.289 156.722 153.917 157.067 153.172H160.832C160.639 153.931 160.288 154.614 159.777 155.221C159.281 155.828 158.653 156.303 157.894 156.648C157.136 156.993 156.287 157.166 155.349 157.166C154.218 157.166 153.211 156.924 152.328 156.441C151.446 155.959 150.756 155.269 150.259 154.372C149.763 153.476 149.514 152.427 149.514 151.227C149.514 150.027 149.756 148.979 150.239 148.082C150.735 147.186 151.425 146.496 152.308 146.013C153.191 145.53 154.204 145.289 155.349 145.289C156.467 145.289 157.46 145.523 158.329 145.992C159.198 146.461 159.874 147.13 160.357 147.999C160.853 148.868 161.101 149.882 161.101 151.041ZM157.48 150.11C157.48 149.503 157.274 149.02 156.86 148.661C156.446 148.303 155.929 148.124 155.308 148.124C154.715 148.124 154.211 148.296 153.797 148.641C153.397 148.986 153.149 149.475 153.053 150.11H157.48ZM162.264 151.206C162.264 150.02 162.485 148.979 162.927 148.082C163.382 147.186 163.996 146.496 164.768 146.013C165.541 145.53 166.403 145.289 167.354 145.289C168.168 145.289 168.879 145.454 169.486 145.785C170.106 146.116 170.582 146.551 170.913 147.089V145.454H174.452V157H170.913V155.365C170.569 155.903 170.086 156.338 169.465 156.669C168.858 157 168.148 157.166 167.334 157.166C166.396 157.166 165.541 156.924 164.768 156.441C163.996 155.945 163.382 155.248 162.927 154.352C162.485 153.441 162.264 152.393 162.264 151.206ZM170.913 151.227C170.913 150.344 170.665 149.648 170.168 149.137C169.686 148.627 169.093 148.372 168.389 148.372C167.686 148.372 167.086 148.627 166.589 149.137C166.106 149.634 165.865 150.324 165.865 151.206C165.865 152.089 166.106 152.793 166.589 153.317C167.086 153.827 167.686 154.083 168.389 154.083C169.093 154.083 169.686 153.827 170.168 153.317C170.665 152.807 170.913 152.11 170.913 151.227ZM191.743 145.33C193.178 145.33 194.316 145.765 195.157 146.634C196.013 147.503 196.44 148.71 196.44 150.255V157H192.923V150.731C192.923 149.986 192.723 149.413 192.323 149.013C191.936 148.599 191.398 148.393 190.709 148.393C190.019 148.393 189.474 148.599 189.074 149.013C188.688 149.413 188.495 149.986 188.495 150.731V157H184.977V150.731C184.977 149.986 184.777 149.413 184.377 149.013C183.991 148.599 183.453 148.393 182.763 148.393C182.074 148.393 181.529 148.599 181.129 149.013C180.743 149.413 180.549 149.986 180.549 150.731V157H177.011V145.454H180.549V146.903C180.908 146.42 181.377 146.041 181.956 145.765C182.536 145.475 183.191 145.33 183.922 145.33C184.791 145.33 185.564 145.516 186.239 145.889C186.929 146.261 187.467 146.792 187.853 147.482C188.253 146.848 188.798 146.33 189.488 145.93C190.178 145.53 190.929 145.33 191.743 145.33Z" fill="white"/>
<path d="M192.559 26.1854V22.8955H198.29V38H194.607V26.1854H192.559ZM200.71 30.2408C200.71 27.8683 201.166 25.9992 202.076 24.6336C203 23.2679 204.483 22.5851 206.525 22.5851C208.566 22.5851 210.042 23.2679 210.953 24.6336C211.877 25.9992 212.339 27.8683 212.339 30.2408C212.339 32.641 211.877 34.5239 210.953 35.8895C210.042 37.2551 208.566 37.9379 206.525 37.9379C204.483 37.9379 203 37.2551 202.076 35.8895C201.166 34.5239 200.71 32.641 200.71 30.2408ZM208.863 30.2408C208.863 28.8476 208.711 27.7786 208.408 27.0337C208.104 26.2751 207.476 25.8957 206.525 25.8957C205.573 25.8957 204.945 26.2751 204.642 27.0337C204.338 27.7786 204.187 28.8476 204.187 30.2408C204.187 31.1788 204.242 31.9582 204.352 32.5789C204.462 33.1859 204.683 33.6825 205.014 34.0687C205.359 34.4411 205.863 34.6274 206.525 34.6274C207.187 34.6274 207.683 34.4411 208.014 34.0687C208.359 33.6825 208.587 33.1859 208.697 32.5789C208.808 31.9582 208.863 31.1788 208.863 30.2408ZM216.215 38.1655C215.594 38.1655 215.084 37.9862 214.684 37.6276C214.298 37.2551 214.105 36.7999 214.105 36.2619C214.105 35.7102 214.298 35.2481 214.684 34.8756C215.084 34.5032 215.594 34.317 216.215 34.317C216.822 34.317 217.319 34.5032 217.705 34.8756C218.105 35.2481 218.305 35.7102 218.305 36.2619C218.305 36.7999 218.105 37.2551 217.705 37.6276C217.319 37.9862 216.822 38.1655 216.215 38.1655ZM220.048 30.2408C220.048 27.8683 220.503 25.9992 221.413 24.6336C222.338 23.2679 223.82 22.5851 225.862 22.5851C227.903 22.5851 229.379 23.2679 230.29 24.6336C231.214 25.9992 231.676 27.8683 231.676 30.2408C231.676 32.641 231.214 34.5239 230.29 35.8895C229.379 37.2551 227.903 37.9379 225.862 37.9379C223.82 37.9379 222.338 37.2551 221.413 35.8895C220.503 34.5239 220.048 32.641 220.048 30.2408ZM228.2 30.2408C228.2 28.8476 228.048 27.7786 227.745 27.0337C227.441 26.2751 226.814 25.8957 225.862 25.8957C224.91 25.8957 224.283 26.2751 223.979 27.0337C223.676 27.7786 223.524 28.8476 223.524 30.2408C223.524 31.1788 223.579 31.9582 223.689 32.5789C223.8 33.1859 224.02 33.6825 224.351 34.0687C224.696 34.4411 225.2 34.6274 225.862 34.6274C226.524 34.6274 227.021 34.4411 227.352 34.0687C227.697 33.6825 227.924 33.1859 228.034 32.5789C228.145 31.9582 228.2 31.1788 228.2 30.2408ZM233.256 26.7027C233.256 25.5854 233.573 24.7232 234.208 24.1163C234.856 23.5093 235.69 23.2059 236.711 23.2059C237.732 23.2059 238.56 23.5093 239.194 24.1163C239.829 24.7232 240.146 25.5854 240.146 26.7027C240.146 27.82 239.829 28.6821 239.194 29.2891C238.56 29.896 237.732 30.1995 236.711 30.1995C235.69 30.1995 234.856 29.896 234.208 29.2891C233.573 28.6821 233.256 27.82 233.256 26.7027ZM247.305 23.4335L239.339 38H235.925L243.891 23.4335H247.305ZM236.69 25.275C236.028 25.275 235.697 25.7509 235.697 26.7027C235.697 27.6407 236.028 28.1097 236.69 28.1097C237.008 28.1097 237.256 27.9924 237.435 27.7579C237.615 27.5234 237.704 27.1717 237.704 26.7027C237.704 25.7509 237.366 25.275 236.69 25.275ZM243.105 34.7308C243.105 33.6135 243.422 32.7514 244.056 32.1444C244.691 31.5375 245.519 31.234 246.539 31.234C247.56 31.234 248.388 31.5375 249.022 32.1444C249.657 32.7514 249.974 33.6135 249.974 34.7308C249.974 35.8481 249.657 36.7103 249.022 37.3172C248.388 37.9241 247.56 38.2276 246.539 38.2276C245.519 38.2276 244.691 37.9241 244.056 37.3172C243.422 36.7103 243.105 35.8481 243.105 34.7308ZM246.519 33.3031C246.201 33.3031 245.953 33.4204 245.774 33.6549C245.608 33.8894 245.526 34.248 245.526 34.7308C245.526 35.6688 245.857 36.1378 246.519 36.1378C246.836 36.1378 247.084 36.0206 247.264 35.7861C247.443 35.5516 247.533 35.1998 247.533 34.7308C247.533 34.2618 247.443 33.9101 247.264 33.6756C247.084 33.4273 246.836 33.3031 246.519 33.3031ZM271.74 28.151C271.74 28.9925 271.547 29.7649 271.161 30.4684C270.774 31.1581 270.181 31.7168 269.381 32.1444C268.581 32.572 267.588 32.7858 266.402 32.7858H264.208V38H260.67V23.4749H266.402C267.56 23.4749 268.54 23.6749 269.34 24.0749C270.14 24.4749 270.74 25.0267 271.14 25.7302C271.54 26.4337 271.74 27.2406 271.74 28.151ZM266.133 29.9719C266.809 29.9719 267.312 29.8132 267.643 29.496C267.974 29.1787 268.14 28.7304 268.14 28.151C268.14 27.5717 267.974 27.1234 267.643 26.8061C267.312 26.4889 266.809 26.3302 266.133 26.3302H264.208V29.9719H266.133ZM277.12 28.3786C277.534 27.7441 278.051 27.2475 278.672 26.8889C279.293 26.5164 279.982 26.3302 280.741 26.3302V30.0753H279.769C278.886 30.0753 278.224 30.2684 277.782 30.6547C277.341 31.0271 277.12 31.6892 277.12 32.641V38H273.582V26.4544H277.12V28.3786ZM284.212 25.2543C283.591 25.2543 283.081 25.075 282.681 24.7163C282.294 24.3439 282.101 23.8887 282.101 23.3507C282.101 22.799 282.294 22.3437 282.681 21.9851C283.081 21.6127 283.591 21.4264 284.212 21.4264C284.819 21.4264 285.315 21.6127 285.702 21.9851C286.102 22.3437 286.302 22.799 286.302 23.3507C286.302 23.8887 286.102 24.3439 285.702 24.7163C285.315 25.075 284.819 25.2543 284.212 25.2543ZM285.97 26.4544V38H282.432V26.4544H285.97ZM293.728 34.6894L296.232 26.4544H299.997L295.901 38H291.535L287.438 26.4544H291.224L293.728 34.6894ZM300.783 32.2065C300.783 31.0202 301.004 29.9788 301.445 29.0821C301.901 28.1855 302.514 27.4958 303.287 27.013C304.059 26.5302 304.921 26.2888 305.873 26.2888C306.687 26.2888 307.397 26.4544 308.004 26.7854C308.625 27.1165 309.101 27.551 309.432 28.089V26.4544H312.97V38H309.432V36.3654C309.087 36.9034 308.604 37.3379 307.984 37.6689C307.377 38 306.666 38.1655 305.853 38.1655C304.915 38.1655 304.059 37.9241 303.287 37.4413C302.514 36.9448 301.901 36.2482 301.445 35.3515C301.004 34.4411 300.783 33.3928 300.783 32.2065ZM309.432 32.2272C309.432 31.3444 309.184 30.6478 308.687 30.1374C308.204 29.627 307.611 29.3718 306.908 29.3718C306.204 29.3718 305.604 29.627 305.108 30.1374C304.625 30.634 304.383 31.3237 304.383 32.2065C304.383 33.0893 304.625 33.7928 305.108 34.317C305.604 34.8274 306.204 35.0826 306.908 35.0826C307.611 35.0826 308.204 34.8274 308.687 34.317C309.184 33.8066 309.432 33.11 309.432 32.2272ZM321.965 34.9998V38H320.165C318.882 38 317.882 37.6896 317.165 37.0689C316.447 36.4344 316.089 35.4067 316.089 33.9859V29.3925H314.682V26.4544H316.089V23.6404H319.627V26.4544H321.944V29.3925H319.627V34.0273C319.627 34.3722 319.71 34.6205 319.875 34.7722C320.041 34.9239 320.317 34.9998 320.703 34.9998H321.965ZM334.819 32.041C334.819 32.372 334.799 32.7169 334.757 33.0755H326.75C326.805 33.7928 327.032 34.3446 327.433 34.7308C327.846 35.1032 328.35 35.2895 328.943 35.2895C329.826 35.2895 330.44 34.917 330.784 34.1721H334.55C334.357 34.9308 334.005 35.6136 333.495 36.2206C332.998 36.8275 332.371 37.3034 331.612 37.6483C330.853 37.9931 330.005 38.1655 329.067 38.1655C327.936 38.1655 326.929 37.9241 326.046 37.4413C325.163 36.9585 324.474 36.2688 323.977 35.3722C323.481 34.4756 323.232 33.4273 323.232 32.2272C323.232 31.0271 323.474 29.9788 323.956 29.0821C324.453 28.1855 325.143 27.4958 326.026 27.013C326.908 26.5302 327.922 26.2888 329.067 26.2888C330.184 26.2888 331.178 26.5233 332.047 26.9923C332.916 27.4613 333.592 28.1304 334.074 28.9994C334.571 29.8684 334.819 30.8823 334.819 32.041ZM331.198 31.1099C331.198 30.5029 330.991 30.0201 330.578 29.6615C330.164 29.3028 329.646 29.1235 329.026 29.1235C328.433 29.1235 327.929 29.296 327.515 29.6408C327.115 29.9857 326.867 30.4753 326.77 31.1099H331.198Z" fill="white"/>
<path d="M491.738 26.5721C491.945 27.6618 492.58 28.2067 493.642 28.2067C494.373 28.2067 494.89 27.8825 495.194 27.2342C495.497 26.5859 495.649 25.5307 495.649 24.0685C495.345 24.4961 494.932 24.8272 494.407 25.0617C493.883 25.2962 493.297 25.4134 492.649 25.4134C491.766 25.4134 490.98 25.2341 490.29 24.8754C489.6 24.503 489.055 23.9581 488.655 23.2408C488.269 22.5098 488.076 21.6269 488.076 20.5924C488.076 19.5716 488.283 18.6819 488.697 17.9232C489.124 17.1646 489.724 16.5783 490.497 16.1645C491.283 15.7507 492.207 15.5438 493.269 15.5438C495.311 15.5438 496.739 16.1783 497.552 17.4473C498.366 18.7164 498.773 20.5855 498.773 23.0546C498.773 24.8479 498.608 26.3307 498.277 27.5032C497.959 28.6619 497.415 29.5447 496.642 30.1517C495.883 30.7586 494.842 31.0621 493.518 31.0621C492.469 31.0621 491.573 30.8552 490.828 30.4413C490.097 30.0275 489.531 29.4827 489.131 28.8067C488.745 28.1308 488.524 27.386 488.469 26.5721H491.738ZM493.456 22.6201C494.035 22.6201 494.497 22.4477 494.842 22.1028C495.187 21.7442 495.359 21.2614 495.359 20.6545C495.359 19.9923 495.18 19.482 494.821 19.1233C494.463 18.7647 493.98 18.5854 493.373 18.5854C492.766 18.5854 492.283 18.7716 491.924 19.144C491.58 19.5027 491.407 19.9992 491.407 20.6338C491.407 21.2269 491.58 21.7097 491.924 22.0821C492.283 22.4408 492.794 22.6201 493.456 22.6201ZM502.668 31.1655C502.047 31.1655 501.537 30.9862 501.137 30.6276C500.751 30.2551 500.558 29.7999 500.558 29.2619C500.558 28.7102 500.751 28.2481 501.137 27.8756C501.537 27.5032 502.047 27.317 502.668 27.317C503.275 27.317 503.772 27.5032 504.158 27.8756C504.558 28.2481 504.758 28.7102 504.758 29.2619C504.758 29.7999 504.558 30.2551 504.158 30.6276C503.772 30.9862 503.275 31.1655 502.668 31.1655ZM506.501 23.2408C506.501 20.8683 506.956 18.9992 507.866 17.6336C508.79 16.2679 510.273 15.5851 512.315 15.5851C514.356 15.5851 515.832 16.2679 516.743 17.6336C517.667 18.9992 518.129 20.8683 518.129 23.2408C518.129 25.641 517.667 27.5239 516.743 28.8895C515.832 30.2551 514.356 30.9379 512.315 30.9379C510.273 30.9379 508.79 30.2551 507.866 28.8895C506.956 27.5239 506.501 25.641 506.501 23.2408ZM514.653 23.2408C514.653 21.8476 514.501 20.7786 514.198 20.0337C513.894 19.2751 513.267 18.8957 512.315 18.8957C511.363 18.8957 510.735 19.2751 510.432 20.0337C510.128 20.7786 509.977 21.8476 509.977 23.2408C509.977 24.1788 510.032 24.9582 510.142 25.5789C510.253 26.1859 510.473 26.6825 510.804 27.0687C511.149 27.4411 511.653 27.6274 512.315 27.6274C512.977 27.6274 513.473 27.4411 513.804 27.0687C514.149 26.6825 514.377 26.1859 514.487 25.5789C514.598 24.9582 514.653 24.1788 514.653 23.2408ZM519.709 19.7027C519.709 18.5854 520.026 17.7232 520.66 17.1163C521.309 16.5093 522.143 16.2059 523.164 16.2059C524.185 16.2059 525.012 16.5093 525.647 17.1163C526.281 17.7232 526.599 18.5854 526.599 19.7027C526.599 20.82 526.281 21.6821 525.647 22.2891C525.012 22.896 524.185 23.1995 523.164 23.1995C522.143 23.1995 521.309 22.896 520.66 22.2891C520.026 21.6821 519.709 20.82 519.709 19.7027ZM533.758 16.4335L525.792 31H522.378L530.344 16.4335H533.758ZM523.143 18.275C522.481 18.275 522.15 18.7509 522.15 19.7027C522.15 20.6407 522.481 21.1097 523.143 21.1097C523.461 21.1097 523.709 20.9924 523.888 20.7579C524.067 20.5234 524.157 20.1717 524.157 19.7027C524.157 18.7509 523.819 18.275 523.143 18.275ZM529.558 27.7308C529.558 26.6135 529.875 25.7514 530.509 25.1444C531.144 24.5375 531.971 24.234 532.992 24.234C534.013 24.234 534.841 24.5375 535.475 25.1444C536.11 25.7514 536.427 26.6135 536.427 27.7308C536.427 28.8481 536.11 29.7103 535.475 30.3172C534.841 30.9241 534.013 31.2276 532.992 31.2276C531.971 31.2276 531.144 30.9241 530.509 30.3172C529.875 29.7103 529.558 28.8481 529.558 27.7308ZM532.972 26.3031C532.654 26.3031 532.406 26.4204 532.227 26.6549C532.061 26.8894 531.978 27.248 531.978 27.7308C531.978 28.6688 532.309 29.1378 532.972 29.1378C533.289 29.1378 533.537 29.0206 533.716 28.7861C533.896 28.5516 533.985 28.1998 533.985 27.7308C533.985 27.2618 533.896 26.9101 533.716 26.6756C533.537 26.4273 533.289 26.3031 532.972 26.3031ZM558.193 21.151C558.193 21.9925 558 22.7649 557.613 23.4684C557.227 24.1581 556.634 24.7168 555.834 25.1444C555.034 25.572 554.041 25.7858 552.855 25.7858H550.661V31H547.123V16.4749H552.855C554.013 16.4749 554.993 16.6749 555.793 17.0749C556.593 17.4749 557.193 18.0267 557.593 18.7302C557.993 19.4337 558.193 20.2406 558.193 21.151ZM552.586 22.9719C553.261 22.9719 553.765 22.8132 554.096 22.496C554.427 22.1787 554.593 21.7304 554.593 21.151C554.593 20.5717 554.427 20.1234 554.096 19.8061C553.765 19.4889 553.261 19.3302 552.586 19.3302H550.661V22.9719H552.586ZM571.436 19.4544V31H567.897V29.4275C567.539 29.9379 567.049 30.3517 566.428 30.6689C565.821 30.9724 565.146 31.1241 564.401 31.1241C563.518 31.1241 562.738 30.931 562.063 30.5448C561.387 30.1448 560.862 29.5723 560.49 28.8274C560.118 28.0826 559.931 27.2066 559.931 26.1997V19.4544H563.449V25.7238C563.449 26.4962 563.649 27.0963 564.049 27.5239C564.449 27.9515 564.987 28.1653 565.663 28.1653C566.353 28.1653 566.897 27.9515 567.297 27.5239C567.697 27.0963 567.897 26.4962 567.897 25.7238V19.4544H571.436ZM577.515 21.089C577.846 20.551 578.322 20.1165 578.943 19.7854C579.564 19.4544 580.274 19.2888 581.074 19.2888C582.026 19.2888 582.888 19.5302 583.66 20.013C584.433 20.4958 585.04 21.1855 585.481 22.0821C585.937 22.9788 586.164 24.0202 586.164 25.2065C586.164 26.3928 585.937 27.4411 585.481 28.3515C585.04 29.2482 584.433 29.9448 583.66 30.4413C582.888 30.9241 582.026 31.1655 581.074 31.1655C580.26 31.1655 579.55 31.0069 578.943 30.6896C578.336 30.3586 577.86 29.9241 577.515 29.3861V31H573.977V15.6886H577.515V21.089ZM582.564 25.2065C582.564 24.3237 582.316 23.634 581.819 23.1374C581.336 22.627 580.736 22.3718 580.019 22.3718C579.315 22.3718 578.715 22.627 578.219 23.1374C577.736 23.6478 577.495 24.3444 577.495 25.2272C577.495 26.11 577.736 26.8066 578.219 27.317C578.715 27.8274 579.315 28.0826 580.019 28.0826C580.722 28.0826 581.322 27.8274 581.819 27.317C582.316 26.7928 582.564 26.0893 582.564 25.2065ZM591.559 15.6886V31H588.02V15.6886H591.559ZM595.902 18.2543C595.281 18.2543 594.771 18.075 594.371 17.7163C593.985 17.3439 593.792 16.8887 593.792 16.3507C593.792 15.799 593.985 15.3437 594.371 14.9851C594.771 14.6127 595.281 14.4264 595.902 14.4264C596.509 14.4264 597.006 14.6127 597.392 14.9851C597.792 15.3437 597.992 15.799 597.992 16.3507C597.992 16.8887 597.792 17.3439 597.392 17.7163C597.006 18.075 596.509 18.2543 595.902 18.2543ZM597.661 19.4544V31H594.123V19.4544H597.661ZM599.521 25.2272C599.521 24.0271 599.763 22.9788 600.246 22.0821C600.742 21.1855 601.425 20.4958 602.294 20.013C603.177 19.5302 604.184 19.2888 605.315 19.2888C606.763 19.2888 607.97 19.6682 608.936 20.4269C609.915 21.1855 610.557 22.2546 610.86 23.634H607.094C606.777 22.7512 606.163 22.3097 605.253 22.3097C604.604 22.3097 604.087 22.5649 603.701 23.0753C603.315 23.5719 603.122 24.2892 603.122 25.2272C603.122 26.1652 603.315 26.8894 603.701 27.3998C604.087 27.8963 604.604 28.1446 605.253 28.1446C606.163 28.1446 606.777 27.7032 607.094 26.8204H610.86C610.557 28.1722 609.915 29.2344 608.936 30.0068C607.956 30.7793 606.749 31.1655 605.315 31.1655C604.184 31.1655 603.177 30.9241 602.294 30.4413C601.425 29.9585 600.742 29.2688 600.246 28.3722C599.763 27.4756 599.521 26.4273 599.521 25.2272Z" fill="white"/>
<path d="M610.401 85.9717C610.29 85.4613 610.097 85.0819 609.821 84.8336C609.545 84.5716 609.152 84.4405 608.642 84.4405C607.856 84.4405 607.29 84.7854 606.945 85.4751C606.6 86.151 606.421 87.2269 606.407 88.7029C606.711 88.2201 607.145 87.8407 607.711 87.5649C608.29 87.289 608.925 87.151 609.614 87.151C610.966 87.151 612.049 87.5787 612.863 88.4339C613.69 89.2891 614.104 90.4823 614.104 92.0134C614.104 93.0204 613.897 93.9032 613.484 94.6619C613.084 95.4206 612.49 96.0137 611.704 96.4413C610.932 96.869 610.014 97.0828 608.952 97.0828C606.828 97.0828 605.352 96.4206 604.524 95.0964C603.697 93.7584 603.283 91.841 603.283 89.3443C603.283 86.7234 603.717 84.7785 604.586 83.5094C605.469 82.2266 606.876 81.5851 608.807 81.5851C609.842 81.5851 610.711 81.7921 611.414 82.2059C612.132 82.6059 612.67 83.137 613.028 83.7991C613.401 84.4612 613.621 85.1854 613.69 85.9717H610.401ZM608.766 89.9443C608.173 89.9443 607.676 90.1237 607.276 90.4823C606.89 90.8272 606.697 91.3237 606.697 91.9721C606.697 92.6342 606.876 93.1515 607.235 93.5239C607.607 93.8963 608.131 94.0826 608.807 94.0826C609.414 94.0826 609.89 93.9032 610.235 93.5446C610.594 93.1721 610.773 92.6687 610.773 92.0341C610.773 91.3858 610.601 90.8754 610.256 90.503C609.911 90.1306 609.414 89.9443 608.766 89.9443ZM618.113 97.1655C617.492 97.1655 616.981 96.9862 616.581 96.6276C616.195 96.2551 616.002 95.7999 616.002 95.2619C616.002 94.7102 616.195 94.2481 616.581 93.8756C616.981 93.5032 617.492 93.317 618.113 93.317C618.719 93.317 619.216 93.5032 619.602 93.8756C620.002 94.2481 620.202 94.7102 620.202 95.2619C620.202 95.7999 620.002 96.2551 619.602 96.6276C619.216 96.9862 618.719 97.1655 618.113 97.1655ZM621.945 89.2408C621.945 86.8683 622.4 84.9992 623.311 83.6336C624.235 82.2679 625.718 81.5851 627.759 81.5851C629.801 81.5851 631.277 82.2679 632.187 83.6336C633.111 84.9992 633.573 86.8683 633.573 89.2408C633.573 91.641 633.111 93.5239 632.187 94.8895C631.277 96.2551 629.801 96.9379 627.759 96.9379C625.718 96.9379 624.235 96.2551 623.311 94.8895C622.4 93.5239 621.945 91.641 621.945 89.2408ZM630.097 89.2408C630.097 87.8476 629.946 86.7786 629.642 86.0337C629.339 85.2751 628.711 84.8957 627.759 84.8957C626.807 84.8957 626.18 85.2751 625.876 86.0337C625.573 86.7786 625.421 87.8476 625.421 89.2408C625.421 90.1788 625.476 90.9582 625.587 91.5789C625.697 92.1859 625.918 92.6825 626.249 93.0687C626.594 93.4411 627.097 93.6274 627.759 93.6274C628.421 93.6274 628.918 93.4411 629.249 93.0687C629.594 92.6825 629.821 92.1859 629.932 91.5789C630.042 90.9582 630.097 90.1788 630.097 89.2408ZM635.153 85.7027C635.153 84.5854 635.47 83.7232 636.105 83.1163C636.753 82.5093 637.588 82.2059 638.609 82.2059C639.629 82.2059 640.457 82.5093 641.091 83.1163C641.726 83.7232 642.043 84.5854 642.043 85.7027C642.043 86.82 641.726 87.6821 641.091 88.2891C640.457 88.896 639.629 89.1995 638.609 89.1995C637.588 89.1995 636.753 88.896 636.105 88.2891C635.47 87.6821 635.153 86.82 635.153 85.7027ZM649.202 82.4335L641.236 97H637.822L645.788 82.4335H649.202ZM638.588 84.275C637.926 84.275 637.595 84.7509 637.595 85.7027C637.595 86.6407 637.926 87.1097 638.588 87.1097C638.905 87.1097 639.153 86.9924 639.333 86.7579C639.512 86.5234 639.602 86.1717 639.602 85.7027C639.602 84.7509 639.264 84.275 638.588 84.275ZM645.002 93.7308C645.002 92.6135 645.319 91.7514 645.954 91.1444C646.588 90.5375 647.416 90.234 648.437 90.234C649.458 90.234 650.285 90.5375 650.92 91.1444C651.554 91.7514 651.871 92.6135 651.871 93.7308C651.871 94.8481 651.554 95.7103 650.92 96.3172C650.285 96.9241 649.458 97.2276 648.437 97.2276C647.416 97.2276 646.588 96.9241 645.954 96.3172C645.319 95.7103 645.002 94.8481 645.002 93.7308ZM648.416 92.3031C648.099 92.3031 647.851 92.4204 647.671 92.6549C647.506 92.8894 647.423 93.248 647.423 93.7308C647.423 94.6688 647.754 95.1378 648.416 95.1378C648.733 95.1378 648.982 95.0206 649.161 94.7861C649.34 94.5516 649.43 94.1998 649.43 93.7308C649.43 93.2618 649.34 92.9101 649.161 92.6756C648.982 92.4273 648.733 92.3031 648.416 92.3031ZM672.208 97.1448C671.146 97.1448 670.194 96.9724 669.353 96.6276C668.511 96.2827 667.835 95.7723 667.325 95.0964C666.828 94.4205 666.566 93.6067 666.539 92.6549H670.304C670.36 93.1928 670.546 93.6067 670.863 93.8963C671.18 94.1722 671.594 94.3102 672.104 94.3102C672.629 94.3102 673.042 94.1929 673.346 93.9584C673.649 93.7101 673.801 93.3722 673.801 92.9445C673.801 92.5859 673.677 92.2893 673.429 92.0548C673.194 91.8203 672.898 91.6272 672.539 91.4755C672.194 91.3237 671.698 91.1513 671.049 90.9582C670.111 90.6685 669.346 90.3789 668.753 90.0892C668.159 89.7995 667.649 89.3719 667.221 88.8063C666.794 88.2408 666.58 87.5028 666.58 86.5924C666.58 85.2406 667.07 84.1853 668.049 83.4266C669.028 82.6542 670.304 82.2679 671.877 82.2679C673.477 82.2679 674.767 82.6542 675.746 83.4266C676.725 84.1853 677.25 85.2475 677.319 86.6131H673.491C673.463 86.1441 673.291 85.7785 672.973 85.5164C672.656 85.2406 672.249 85.1026 671.753 85.1026C671.325 85.1026 670.98 85.2199 670.718 85.4544C670.456 85.6751 670.325 85.9992 670.325 86.4269C670.325 86.8959 670.546 87.2614 670.987 87.5235C671.429 87.7856 672.118 88.0683 673.056 88.3718C673.994 88.6891 674.753 88.9926 675.332 89.2822C675.925 89.5719 676.436 89.9926 676.863 90.5444C677.291 91.0961 677.505 91.8065 677.505 92.6756C677.505 93.5032 677.291 94.255 676.863 94.9309C676.45 95.6068 675.843 96.1448 675.043 96.5448C674.243 96.9448 673.298 97.1448 672.208 97.1448ZM690.566 91.041C690.566 91.372 690.545 91.7169 690.504 92.0755H682.496C682.551 92.7928 682.779 93.3446 683.179 93.7308C683.593 94.1032 684.096 94.2895 684.689 94.2895C685.572 94.2895 686.186 93.917 686.531 93.1721H690.297C690.104 93.9308 689.752 94.6136 689.242 95.2206C688.745 95.8275 688.117 96.3034 687.359 96.6483C686.6 96.9931 685.752 97.1655 684.814 97.1655C683.683 97.1655 682.676 96.9241 681.793 96.4413C680.91 95.9585 680.22 95.2688 679.724 94.3722C679.227 93.4756 678.979 92.4273 678.979 91.2272C678.979 90.0271 679.22 88.9788 679.703 88.0821C680.2 87.1855 680.889 86.4958 681.772 86.013C682.655 85.5302 683.669 85.2888 684.814 85.2888C685.931 85.2888 686.924 85.5233 687.793 85.9923C688.662 86.4613 689.338 87.1304 689.821 87.9994C690.317 88.8684 690.566 89.8823 690.566 91.041ZM686.945 90.1099C686.945 89.5029 686.738 89.0201 686.324 88.6615C685.91 88.3028 685.393 88.1235 684.772 88.1235C684.179 88.1235 683.676 88.296 683.262 88.6408C682.862 88.9857 682.613 89.4753 682.517 90.1099H686.945ZM703.316 91.041C703.316 91.372 703.295 91.7169 703.254 92.0755H695.246C695.301 92.7928 695.529 93.3446 695.929 93.7308C696.343 94.1032 696.846 94.2895 697.44 94.2895C698.322 94.2895 698.936 93.917 699.281 93.1721H703.047C702.854 93.9308 702.502 94.6136 701.992 95.2206C701.495 95.8275 700.867 96.3034 700.109 96.6483C699.35 96.9931 698.502 97.1655 697.564 97.1655C696.433 97.1655 695.426 96.9241 694.543 96.4413C693.66 95.9585 692.97 95.2688 692.474 94.3722C691.977 93.4756 691.729 92.4273 691.729 91.2272C691.729 90.0271 691.97 88.9788 692.453 88.0821C692.95 87.1855 693.639 86.4958 694.522 86.013C695.405 85.5302 696.419 85.2888 697.564 85.2888C698.681 85.2888 699.674 85.5233 700.543 85.9923C701.412 86.4613 702.088 87.1304 702.571 87.9994C703.068 88.8684 703.316 89.8823 703.316 91.041ZM699.695 90.1099C699.695 89.5029 699.488 89.0201 699.074 88.6615C698.66 88.3028 698.143 88.1235 697.522 88.1235C696.929 88.1235 696.426 88.296 696.012 88.6408C695.612 88.9857 695.364 89.4753 695.267 90.1099H699.695ZM704.479 91.2065C704.479 90.0202 704.7 88.9788 705.141 88.0821C705.596 87.1855 706.21 86.4958 706.983 86.013C707.755 85.5302 708.617 85.2888 709.569 85.2888C710.328 85.2888 711.017 85.4475 711.638 85.7647C712.273 86.082 712.769 86.5096 713.128 87.0476V81.6886H716.666V97H713.128V95.3447C712.797 95.8965 712.321 96.3379 711.7 96.6689C711.093 97 710.383 97.1655 709.569 97.1655C708.617 97.1655 707.755 96.9241 706.983 96.4413C706.21 95.9448 705.596 95.2482 705.141 94.3515C704.7 93.4411 704.479 92.3928 704.479 91.2065ZM713.128 91.2272C713.128 90.3444 712.879 89.6478 712.383 89.1374C711.9 88.627 711.307 88.3718 710.603 88.3718C709.9 88.3718 709.3 88.627 708.803 89.1374C708.321 89.634 708.079 90.3237 708.079 91.2065C708.079 92.0893 708.321 92.7928 708.803 93.317C709.3 93.8274 709.9 94.0826 710.603 94.0826C711.307 94.0826 711.9 93.8274 712.383 93.317C712.879 92.8066 713.128 92.11 713.128 91.2272Z" fill="white"/>
<path d="M667.566 165.978H661.111V168.834C661.387 168.53 661.773 168.282 662.269 168.089C662.766 167.896 663.304 167.799 663.883 167.799C664.918 167.799 665.773 168.034 666.449 168.503C667.139 168.972 667.642 169.579 667.959 170.324C668.277 171.068 668.435 171.875 668.435 172.744C668.435 174.358 667.98 175.641 667.07 176.593C666.159 177.531 664.876 178 663.221 178C662.118 178 661.159 177.814 660.345 177.441C659.531 177.055 658.904 176.524 658.462 175.848C658.021 175.172 657.779 174.393 657.738 173.51H661.193C661.276 173.938 661.476 174.296 661.794 174.586C662.111 174.862 662.545 175 663.097 175C663.745 175 664.228 174.793 664.545 174.379C664.863 173.965 665.021 173.413 665.021 172.724C665.021 172.048 664.856 171.531 664.525 171.172C664.194 170.813 663.711 170.634 663.076 170.634C662.607 170.634 662.221 170.751 661.918 170.986C661.614 171.206 661.414 171.503 661.318 171.875H657.904V162.875H667.566V165.978ZM672.395 178.166C671.775 178.166 671.264 177.986 670.864 177.628C670.478 177.255 670.285 176.8 670.285 176.262C670.285 175.71 670.478 175.248 670.864 174.876C671.264 174.503 671.775 174.317 672.395 174.317C673.002 174.317 673.499 174.503 673.885 174.876C674.285 175.248 674.485 175.71 674.485 176.262C674.485 176.8 674.285 177.255 673.885 177.628C673.499 177.986 673.002 178.166 672.395 178.166ZM676.228 170.241C676.228 167.868 676.683 165.999 677.594 164.634C678.518 163.268 680.001 162.585 682.042 162.585C684.084 162.585 685.56 163.268 686.47 164.634C687.394 165.999 687.856 167.868 687.856 170.241C687.856 172.641 687.394 174.524 686.47 175.89C685.56 177.255 684.084 177.938 682.042 177.938C680.001 177.938 678.518 177.255 677.594 175.89C676.683 174.524 676.228 172.641 676.228 170.241ZM684.38 170.241C684.38 168.848 684.229 167.779 683.925 167.034C683.622 166.275 682.994 165.896 682.042 165.896C681.09 165.896 680.463 166.275 680.159 167.034C679.856 167.779 679.704 168.848 679.704 170.241C679.704 171.179 679.759 171.958 679.87 172.579C679.98 173.186 680.201 173.682 680.532 174.069C680.877 174.441 681.38 174.627 682.042 174.627C682.704 174.627 683.201 174.441 683.532 174.069C683.877 173.682 684.104 173.186 684.215 172.579C684.325 171.958 684.38 171.179 684.38 170.241ZM689.436 166.703C689.436 165.585 689.753 164.723 690.388 164.116C691.036 163.509 691.871 163.206 692.891 163.206C693.912 163.206 694.74 163.509 695.374 164.116C696.009 164.723 696.326 165.585 696.326 166.703C696.326 167.82 696.009 168.682 695.374 169.289C694.74 169.896 693.912 170.199 692.891 170.199C691.871 170.199 691.036 169.896 690.388 169.289C689.753 168.682 689.436 167.82 689.436 166.703ZM703.485 163.433L695.519 178H692.105L700.071 163.433H703.485ZM692.871 165.275C692.209 165.275 691.878 165.751 691.878 166.703C691.878 167.641 692.209 168.11 692.871 168.11C693.188 168.11 693.436 167.992 693.616 167.758C693.795 167.523 693.885 167.172 693.885 166.703C693.885 165.751 693.547 165.275 692.871 165.275ZM699.285 174.731C699.285 173.613 699.602 172.751 700.237 172.144C700.871 171.537 701.699 171.234 702.72 171.234C703.74 171.234 704.568 171.537 705.203 172.144C705.837 172.751 706.154 173.613 706.154 174.731C706.154 175.848 705.837 176.71 705.203 177.317C704.568 177.924 703.74 178.228 702.72 178.228C701.699 178.228 700.871 177.924 700.237 177.317C699.602 176.71 699.285 175.848 699.285 174.731ZM702.699 173.303C702.382 173.303 702.133 173.42 701.954 173.655C701.789 173.889 701.706 174.248 701.706 174.731C701.706 175.669 702.037 176.138 702.699 176.138C703.016 176.138 703.265 176.021 703.444 175.786C703.623 175.552 703.713 175.2 703.713 174.731C703.713 174.262 703.623 173.91 703.444 173.676C703.265 173.427 703.016 173.303 702.699 173.303ZM725.893 175.434H720.471L719.602 178H715.899L721.154 163.475H725.251L730.507 178H726.762L725.893 175.434ZM724.982 172.703L723.182 167.385L721.403 172.703H724.982ZM731.403 172.206C731.403 171.02 731.623 169.979 732.065 169.082C732.52 168.186 733.134 167.496 733.906 167.013C734.679 166.53 735.541 166.289 736.493 166.289C737.251 166.289 737.941 166.447 738.562 166.765C739.196 167.082 739.693 167.51 740.052 168.048V162.689H743.59V178H740.052V176.345C739.72 176.896 739.245 177.338 738.624 177.669C738.017 178 737.307 178.166 736.493 178.166C735.541 178.166 734.679 177.924 733.906 177.441C733.134 176.945 732.52 176.248 732.065 175.352C731.623 174.441 731.403 173.393 731.403 172.206ZM740.052 172.227C740.052 171.344 739.803 170.648 739.307 170.137C738.824 169.627 738.231 169.372 737.527 169.372C736.824 169.372 736.224 169.627 735.727 170.137C735.244 170.634 735.003 171.324 735.003 172.206C735.003 173.089 735.244 173.793 735.727 174.317C736.224 174.827 736.824 175.083 737.527 175.083C738.231 175.083 738.824 174.827 739.307 174.317C739.803 173.807 740.052 173.11 740.052 172.227ZM751.343 174.689L753.847 166.454H757.612L753.515 178H749.15L745.053 166.454H748.839L751.343 174.689ZM760.881 165.254C760.26 165.254 759.75 165.075 759.35 164.716C758.964 164.344 758.771 163.889 758.771 163.351C758.771 162.799 758.964 162.344 759.35 161.985C759.75 161.613 760.26 161.426 760.881 161.426C761.488 161.426 761.985 161.613 762.371 161.985C762.771 162.344 762.971 162.799 762.971 163.351C762.971 163.889 762.771 164.344 762.371 164.716C761.985 165.075 761.488 165.254 760.881 165.254ZM762.64 166.454V178H759.102V166.454H762.64ZM769.901 178.166C768.894 178.166 767.997 177.993 767.211 177.648C766.425 177.303 765.804 176.834 765.349 176.241C764.893 175.634 764.638 174.958 764.583 174.214H768.08C768.121 174.614 768.307 174.938 768.639 175.186C768.97 175.434 769.377 175.558 769.859 175.558C770.301 175.558 770.639 175.476 770.873 175.31C771.121 175.131 771.246 174.903 771.246 174.627C771.246 174.296 771.073 174.055 770.728 173.903C770.383 173.738 769.825 173.558 769.052 173.365C768.225 173.172 767.535 172.972 766.983 172.765C766.431 172.544 765.956 172.206 765.556 171.751C765.156 171.282 764.956 170.655 764.956 169.868C764.956 169.206 765.135 168.606 765.493 168.068C765.866 167.517 766.404 167.082 767.107 166.765C767.825 166.447 768.673 166.289 769.652 166.289C771.101 166.289 772.239 166.647 773.066 167.365C773.908 168.082 774.391 169.034 774.515 170.22H771.246C771.19 169.82 771.011 169.503 770.708 169.268C770.418 169.034 770.032 168.917 769.549 168.917C769.135 168.917 768.818 168.999 768.597 169.165C768.376 169.317 768.266 169.53 768.266 169.806C768.266 170.137 768.439 170.386 768.783 170.551C769.142 170.717 769.694 170.882 770.439 171.048C771.294 171.269 771.99 171.489 772.528 171.71C773.066 171.917 773.535 172.262 773.935 172.744C774.349 173.213 774.563 173.848 774.577 174.648C774.577 175.324 774.384 175.931 773.998 176.469C773.625 176.993 773.08 177.407 772.363 177.71C771.659 178.014 770.839 178.166 769.901 178.166ZM781.997 178.166C780.866 178.166 779.845 177.924 778.935 177.441C778.038 176.959 777.328 176.269 776.804 175.372C776.293 174.476 776.038 173.427 776.038 172.227C776.038 171.041 776.3 169.999 776.824 169.103C777.348 168.192 778.066 167.496 778.976 167.013C779.887 166.53 780.907 166.289 782.038 166.289C783.17 166.289 784.19 166.53 785.101 167.013C786.011 167.496 786.728 168.192 787.253 169.103C787.777 169.999 788.039 171.041 788.039 172.227C788.039 173.413 787.77 174.462 787.232 175.372C786.708 176.269 785.984 176.959 785.059 177.441C784.149 177.924 783.128 178.166 781.997 178.166ZM781.997 175.103C782.673 175.103 783.245 174.855 783.714 174.358C784.197 173.862 784.439 173.151 784.439 172.227C784.439 171.303 784.204 170.593 783.735 170.096C783.28 169.599 782.714 169.351 782.038 169.351C781.349 169.351 780.776 169.599 780.321 170.096C779.866 170.579 779.638 171.289 779.638 172.227C779.638 173.151 779.859 173.862 780.3 174.358C780.756 174.855 781.321 175.103 781.997 175.103ZM793.454 168.379C793.868 167.744 794.385 167.248 795.006 166.889C795.627 166.516 796.316 166.33 797.075 166.33V170.075H796.103C795.22 170.075 794.558 170.268 794.116 170.655C793.675 171.027 793.454 171.689 793.454 172.641V178H789.916V166.454H793.454V168.379ZM810.56 166.454L803.318 183.483H799.511L802.16 177.607L797.463 166.454H801.415L804.084 173.676L806.732 166.454H810.56Z" fill="white"/>
<path d="M693.566 250.978H687.111V253.834C687.387 253.53 687.773 253.282 688.269 253.089C688.766 252.896 689.304 252.799 689.883 252.799C690.918 252.799 691.773 253.034 692.449 253.503C693.139 253.972 693.642 254.579 693.959 255.324C694.277 256.068 694.435 256.875 694.435 257.744C694.435 259.358 693.98 260.641 693.07 261.593C692.159 262.531 690.876 263 689.221 263C688.118 263 687.159 262.814 686.345 262.441C685.531 262.055 684.904 261.524 684.462 260.848C684.021 260.172 683.779 259.393 683.738 258.51H687.193C687.276 258.938 687.476 259.296 687.794 259.586C688.111 259.862 688.545 260 689.097 260C689.745 260 690.228 259.793 690.545 259.379C690.863 258.965 691.021 258.413 691.021 257.724C691.021 257.048 690.856 256.531 690.525 256.172C690.194 255.813 689.711 255.634 689.076 255.634C688.607 255.634 688.221 255.751 687.918 255.986C687.614 256.206 687.414 256.503 687.318 256.875H683.904V247.875H693.566V250.978ZM698.395 263.166C697.775 263.166 697.264 262.986 696.864 262.628C696.478 262.255 696.285 261.8 696.285 261.262C696.285 260.71 696.478 260.248 696.864 259.876C697.264 259.503 697.775 259.317 698.395 259.317C699.002 259.317 699.499 259.503 699.885 259.876C700.285 260.248 700.485 260.71 700.485 261.262C700.485 261.8 700.285 262.255 699.885 262.628C699.499 262.986 699.002 263.166 698.395 263.166ZM702.228 255.241C702.228 252.868 702.683 250.999 703.594 249.634C704.518 248.268 706.001 247.585 708.042 247.585C710.084 247.585 711.56 248.268 712.47 249.634C713.394 250.999 713.856 252.868 713.856 255.241C713.856 257.641 713.394 259.524 712.47 260.89C711.56 262.255 710.084 262.938 708.042 262.938C706.001 262.938 704.518 262.255 703.594 260.89C702.683 259.524 702.228 257.641 702.228 255.241ZM710.38 255.241C710.38 253.848 710.229 252.779 709.925 252.034C709.622 251.275 708.994 250.896 708.042 250.896C707.09 250.896 706.463 251.275 706.159 252.034C705.856 252.779 705.704 253.848 705.704 255.241C705.704 256.179 705.759 256.958 705.87 257.579C705.98 258.186 706.201 258.682 706.532 259.069C706.877 259.441 707.38 259.627 708.042 259.627C708.704 259.627 709.201 259.441 709.532 259.069C709.877 258.682 710.104 258.186 710.215 257.579C710.325 256.958 710.38 256.179 710.38 255.241ZM715.436 251.703C715.436 250.585 715.753 249.723 716.388 249.116C717.036 248.509 717.871 248.206 718.891 248.206C719.912 248.206 720.74 248.509 721.374 249.116C722.009 249.723 722.326 250.585 722.326 251.703C722.326 252.82 722.009 253.682 721.374 254.289C720.74 254.896 719.912 255.199 718.891 255.199C717.871 255.199 717.036 254.896 716.388 254.289C715.753 253.682 715.436 252.82 715.436 251.703ZM729.485 248.433L721.519 263H718.105L726.071 248.433H729.485ZM718.871 250.275C718.209 250.275 717.878 250.751 717.878 251.703C717.878 252.641 718.209 253.11 718.871 253.11C719.188 253.11 719.436 252.992 719.616 252.758C719.795 252.523 719.885 252.172 719.885 251.703C719.885 250.751 719.547 250.275 718.871 250.275ZM725.285 259.731C725.285 258.613 725.602 257.751 726.237 257.144C726.871 256.537 727.699 256.234 728.72 256.234C729.74 256.234 730.568 256.537 731.203 257.144C731.837 257.751 732.154 258.613 732.154 259.731C732.154 260.848 731.837 261.71 731.203 262.317C730.568 262.924 729.74 263.228 728.72 263.228C727.699 263.228 726.871 262.924 726.237 262.317C725.602 261.71 725.285 260.848 725.285 259.731ZM728.699 258.303C728.382 258.303 728.133 258.42 727.954 258.655C727.789 258.889 727.706 259.248 727.706 259.731C727.706 260.669 728.037 261.138 728.699 261.138C729.016 261.138 729.265 261.021 729.444 260.786C729.623 260.552 729.713 260.2 729.713 259.731C729.713 259.262 729.623 258.91 729.444 258.676C729.265 258.427 729.016 258.303 728.699 258.303ZM753.92 253.151C753.92 253.992 753.727 254.765 753.341 255.468C752.955 256.158 752.362 256.717 751.561 257.144C750.761 257.572 749.768 257.786 748.582 257.786H746.389V263H742.851V248.475H748.582C749.741 248.475 750.72 248.675 751.52 249.075C752.32 249.475 752.92 250.027 753.32 250.73C753.72 251.434 753.92 252.241 753.92 253.151ZM748.313 254.972C748.989 254.972 749.492 254.813 749.823 254.496C750.154 254.179 750.32 253.73 750.32 253.151C750.32 252.572 750.154 252.123 749.823 251.806C749.492 251.489 748.989 251.33 748.313 251.33H746.389V254.972H748.313ZM759.3 253.379C759.714 252.744 760.232 252.248 760.852 251.889C761.473 251.516 762.163 251.33 762.921 251.33V255.075H761.949C761.066 255.075 760.404 255.268 759.963 255.655C759.521 256.027 759.3 256.689 759.3 257.641V263H755.762V251.454H759.3V253.379ZM775.496 257.041C775.496 257.372 775.475 257.717 775.434 258.076H767.427C767.482 258.793 767.709 259.345 768.109 259.731C768.523 260.103 769.027 260.289 769.62 260.289C770.503 260.289 771.116 259.917 771.461 259.172H775.227C775.034 259.931 774.682 260.614 774.172 261.221C773.675 261.828 773.048 262.303 772.289 262.648C771.53 262.993 770.682 263.166 769.744 263.166C768.613 263.166 767.606 262.924 766.723 262.441C765.84 261.959 765.151 261.269 764.654 260.372C764.157 259.476 763.909 258.427 763.909 257.227C763.909 256.027 764.15 254.979 764.633 254.082C765.13 253.186 765.82 252.496 766.702 252.013C767.585 251.53 768.599 251.289 769.744 251.289C770.861 251.289 771.854 251.523 772.723 251.992C773.592 252.461 774.268 253.13 774.751 253.999C775.248 254.868 775.496 255.882 775.496 257.041ZM771.875 256.11C771.875 255.503 771.668 255.02 771.254 254.661C770.841 254.303 770.323 254.124 769.703 254.124C769.109 254.124 768.606 254.296 768.192 254.641C767.792 254.986 767.544 255.475 767.447 256.11H771.875ZM787.003 263.145C785.941 263.145 784.989 262.972 784.148 262.628C783.306 262.283 782.63 261.772 782.12 261.096C781.623 260.421 781.361 259.607 781.334 258.655H785.099C785.154 259.193 785.341 259.607 785.658 259.896C785.975 260.172 786.389 260.31 786.899 260.31C787.424 260.31 787.837 260.193 788.141 259.958C788.444 259.71 788.596 259.372 788.596 258.945C788.596 258.586 788.472 258.289 788.224 258.055C787.989 257.82 787.693 257.627 787.334 257.475C786.989 257.324 786.492 257.151 785.844 256.958C784.906 256.669 784.141 256.379 783.547 256.089C782.954 255.8 782.444 255.372 782.016 254.806C781.589 254.241 781.375 253.503 781.375 252.592C781.375 251.241 781.865 250.185 782.844 249.427C783.823 248.654 785.099 248.268 786.672 248.268C788.272 248.268 789.562 248.654 790.541 249.427C791.52 250.185 792.045 251.247 792.114 252.613H788.286C788.258 252.144 788.086 251.779 787.768 251.516C787.451 251.241 787.044 251.103 786.548 251.103C786.12 251.103 785.775 251.22 785.513 251.454C785.251 251.675 785.12 251.999 785.12 252.427C785.12 252.896 785.341 253.261 785.782 253.523C786.224 253.786 786.913 254.068 787.851 254.372C788.789 254.689 789.548 254.993 790.127 255.282C790.72 255.572 791.231 255.993 791.658 256.544C792.086 257.096 792.3 257.807 792.3 258.676C792.3 259.503 792.086 260.255 791.658 260.931C791.245 261.607 790.638 262.145 789.838 262.545C789.037 262.945 788.093 263.145 787.003 263.145ZM805.361 257.041C805.361 257.372 805.34 257.717 805.299 258.076H797.291C797.346 258.793 797.574 259.345 797.974 259.731C798.388 260.103 798.891 260.289 799.484 260.289C800.367 260.289 800.981 259.917 801.326 259.172H805.092C804.899 259.931 804.547 260.614 804.036 261.221C803.54 261.828 802.912 262.303 802.154 262.648C801.395 262.993 800.547 263.166 799.609 263.166C798.477 263.166 797.471 262.924 796.588 262.441C795.705 261.959 795.015 261.269 794.519 260.372C794.022 259.476 793.774 258.427 793.774 257.227C793.774 256.027 794.015 254.979 794.498 254.082C794.994 253.186 795.684 252.496 796.567 252.013C797.45 251.53 798.464 251.289 799.609 251.289C800.726 251.289 801.719 251.523 802.588 251.992C803.457 252.461 804.133 253.13 804.616 253.999C805.112 254.868 805.361 255.882 805.361 257.041ZM801.74 256.11C801.74 255.503 801.533 255.02 801.119 254.661C800.705 254.303 800.188 254.124 799.567 254.124C798.974 254.124 798.471 254.296 798.057 254.641C797.657 254.986 797.408 255.475 797.312 256.11H801.74ZM818.111 257.041C818.111 257.372 818.09 257.717 818.049 258.076H810.041C810.096 258.793 810.324 259.345 810.724 259.731C811.138 260.103 811.641 260.289 812.235 260.289C813.117 260.289 813.731 259.917 814.076 259.172H817.842C817.649 259.931 817.297 260.614 816.787 261.221C816.29 261.828 815.662 262.303 814.904 262.648C814.145 262.993 813.297 263.166 812.359 263.166C811.228 263.166 810.221 262.924 809.338 262.441C808.455 261.959 807.765 261.269 807.269 260.372C806.772 259.476 806.524 258.427 806.524 257.227C806.524 256.027 806.765 254.979 807.248 254.082C807.745 253.186 808.434 252.496 809.317 252.013C810.2 251.53 811.214 251.289 812.359 251.289C813.476 251.289 814.469 251.523 815.338 251.992C816.207 252.461 816.883 253.13 817.366 253.999C817.862 254.868 818.111 255.882 818.111 257.041ZM814.49 256.11C814.49 255.503 814.283 255.02 813.869 254.661C813.455 254.303 812.938 254.124 812.317 254.124C811.724 254.124 811.221 254.296 810.807 254.641C810.407 254.986 810.159 255.475 810.062 256.11H814.49ZM819.274 257.206C819.274 256.02 819.495 254.979 819.936 254.082C820.391 253.186 821.005 252.496 821.777 252.013C822.55 251.53 823.412 251.289 824.364 251.289C825.123 251.289 825.812 251.447 826.433 251.765C827.067 252.082 827.564 252.51 827.923 253.048V247.689H831.461V263H827.923V261.345C827.592 261.896 827.116 262.338 826.495 262.669C825.888 263 825.178 263.166 824.364 263.166C823.412 263.166 822.55 262.924 821.777 262.441C821.005 261.945 820.391 261.248 819.936 260.352C819.495 259.441 819.274 258.393 819.274 257.206ZM827.923 257.227C827.923 256.344 827.674 255.648 827.178 255.137C826.695 254.627 826.102 254.372 825.398 254.372C824.695 254.372 824.095 254.627 823.598 255.137C823.115 255.634 822.874 256.324 822.874 257.206C822.874 258.089 823.115 258.793 823.598 259.317C824.095 259.827 824.695 260.083 825.398 260.083C826.102 260.083 826.695 259.827 827.178 259.317C827.674 258.807 827.923 258.11 827.923 257.227Z" fill="white"/>
<defs>
<filter id="filter0_d_1660_4777" x="167.392" y="219.312" width="196.499" height="265.106" filterUnits="userSpaceOnUse" color-interpolation-filters="sRGB">
<feFlood flood-opacity="0" result="BackgroundImageFix"/>
<feColorMatrix in="SourceAlpha" type="matrix" values="0 0 0 0 0 0 0 0 0 0 0 0 0 0 0 0 0 0 127 0" result="hardAlpha"/>
<feOffset dx="3.06081" dy="3.06081"/>
<feGaussianBlur stdDeviation="16.8345"/>
<feComposite in2="hardAlpha" operator="out"/>
<feColorMatrix type="matrix" values="0 0 0 0 0.0745098 0 0 0 0 0.619608 0 0 0 0 0.835294 0 0 0 0.55 0"/>
<feBlend mode="normal" in2="BackgroundImageFix" result="effect1_dropShadow_1660_4777"/>
<feBlend mode="normal" in="SourceGraphic" in2="effect1_dropShadow_1660_4777" result="shape"/>
</filter>
<filter id="filter1_d_1660_4777" x="171.406" y="78.7444" width="211.198" height="225.438" filterUnits="userSpaceOnUse" color-interpolation-filters="sRGB">
<feFlood flood-opacity="0" result="BackgroundImageFix"/>
<feColorMatrix in="SourceAlpha" type="matrix" values="0 0 0 0 0 0 0 0 0 0 0 0 0 0 0 0 0 0 127 0" result="hardAlpha"/>
<feOffset dx="3.06081" dy="3.06081"/>
<feGaussianBlur stdDeviation="16.8345"/>
<feComposite in2="hardAlpha" operator="out"/>
<feColorMatrix type="matrix" values="0 0 0 0 0.0745098 0 0 0 0 0.619608 0 0 0 0 0.835294 0 0 0 0.55 0"/>
<feBlend mode="normal" in2="BackgroundImageFix" result="effect1_dropShadow_1660_4777"/>
<feBlend mode="normal" in="SourceGraphic" in2="effect1_dropShadow_1660_4777" result="shape"/>
</filter>
<filter id="filter2_d_1660_4777" x="260.731" y="35.3919" width="200.479" height="185.737" filterUnits="userSpaceOnUse" color-interpolation-filters="sRGB">
<feFlood flood-opacity="0" result="BackgroundImageFix"/>
<feColorMatrix in="SourceAlpha" type="matrix" values="0 0 0 0 0 0 0 0 0 0 0 0 0 0 0 0 0 0 127 0" result="hardAlpha"/>
<feOffset dx="3.06081" dy="3.06081"/>
<feGaussianBlur stdDeviation="16.8345"/>
<feComposite in2="hardAlpha" operator="out"/>
<feColorMatrix type="matrix" values="0 0 0 0 0.0745098 0 0 0 0 0.619608 0 0 0 0 0.835294 0 0 0 0.55 0"/>
<feBlend mode="normal" in2="BackgroundImageFix" result="effect1_dropShadow_1660_4777"/>
<feBlend mode="normal" in="SourceGraphic" in2="effect1_dropShadow_1660_4777" result="shape"/>
</filter>
<filter id="filter3_d_1660_4777" x="393.892" y="35.3919" width="188.103" height="180.782" filterUnits="userSpaceOnUse" color-interpolation-filters="sRGB">
<feFlood flood-opacity="0" result="BackgroundImageFix"/>
<feColorMatrix in="SourceAlpha" type="matrix" values="0 0 0 0 0 0 0 0 0 0 0 0 0 0 0 0 0 0 127 0" result="hardAlpha"/>
<feOffset dx="3.06081" dy="3.06081"/>
<feGaussianBlur stdDeviation="16.8345"/>
<feComposite in2="hardAlpha" operator="out"/>
<feColorMatrix type="matrix" values="0 0 0 0 0.0745098 0 0 0 0 0.619608 0 0 0 0 0.835294 0 0 0 0.55 0"/>
<feBlend mode="normal" in2="BackgroundImageFix" result="effect1_dropShadow_1660_4777"/>
<feBlend mode="normal" in="SourceGraphic" in2="effect1_dropShadow_1660_4777" result="shape"/>
</filter>
<filter id="filter4_d_1660_4777" x="465.123" y="70.2505" width="178.907" height="180.073" filterUnits="userSpaceOnUse" color-interpolation-filters="sRGB">
<feFlood flood-opacity="0" result="BackgroundImageFix"/>
<feColorMatrix in="SourceAlpha" type="matrix" values="0 0 0 0 0 0 0 0 0 0 0 0 0 0 0 0 0 0 127 0" result="hardAlpha"/>
<feOffset dx="3.06081" dy="3.06081"/>
<feGaussianBlur stdDeviation="16.8345"/>
<feComposite in2="hardAlpha" operator="out"/>
<feColorMatrix type="matrix" values="0 0 0 0 0.0745098 0 0 0 0 0.619608 0 0 0 0 0.835294 0 0 0 0.55 0"/>
<feBlend mode="normal" in2="BackgroundImageFix" result="effect1_dropShadow_1660_4777"/>
<feBlend mode="normal" in="SourceGraphic" in2="effect1_dropShadow_1660_4777" result="shape"/>
</filter>
<filter id="filter5_d_1660_4777" x="500.898" y="126.214" width="174.748" height="159.95" filterUnits="userSpaceOnUse" color-interpolation-filters="sRGB">
<feFlood flood-opacity="0" result="BackgroundImageFix"/>
<feColorMatrix in="SourceAlpha" type="matrix" values="0 0 0 0 0 0 0 0 0 0 0 0 0 0 0 0 0 0 127 0" result="hardAlpha"/>
<feOffset dx="3.06081" dy="3.06081"/>
<feGaussianBlur stdDeviation="16.8345"/>
<feComposite in2="hardAlpha" operator="out"/>
<feColorMatrix type="matrix" values="0 0 0 0 0.0745098 0 0 0 0 0.619608 0 0 0 0 0.835294 0 0 0 0.55 0"/>
<feBlend mode="normal" in2="BackgroundImageFix" result="effect1_dropShadow_1660_4777"/>
<feBlend mode="normal" in="SourceGraphic" in2="effect1_dropShadow_1660_4777" result="shape"/>
</filter>
<filter id="filter6_d_1660_4777" x="520.21" y="187.973" width="167.516" height="140.562" filterUnits="userSpaceOnUse" color-interpolation-filters="sRGB">
<feFlood flood-opacity="0" result="BackgroundImageFix"/>
<feColorMatrix in="SourceAlpha" type="matrix" values="0 0 0 0 0 0 0 0 0 0 0 0 0 0 0 0 0 0 127 0" result="hardAlpha"/>
<feOffset dx="3.06081" dy="3.06081"/>
<feGaussianBlur stdDeviation="16.8345"/>
<feComposite in2="hardAlpha" operator="out"/>
<feColorMatrix type="matrix" values="0 0 0 0 0.0745098 0 0 0 0 0.619608 0 0 0 0 0.835294 0 0 0 0.55 0"/>
<feBlend mode="normal" in2="BackgroundImageFix" result="effect1_dropShadow_1660_4777"/>
<feBlend mode="normal" in="SourceGraphic" in2="effect1_dropShadow_1660_4777" result="shape"/>
</filter>
<filter id="filter7_d_1660_4777" x="228.936" y="353.469" width="275.029" height="202.261" filterUnits="userSpaceOnUse" color-interpolation-filters="sRGB">
<feFlood flood-opacity="0" result="BackgroundImageFix"/>
<feColorMatrix in="SourceAlpha" type="matrix" values="0 0 0 0 0 0 0 0 0 0 0 0 0 0 0 0 0 0 127 0" result="hardAlpha"/>
<feOffset dx="3.06081" dy="3.06081"/>
<feGaussianBlur stdDeviation="16.8345"/>
<feComposite in2="hardAlpha" operator="out"/>
<feColorMatrix type="matrix" values="0 0 0 0 0.0745098 0 0 0 0 0.619608 0 0 0 0 0.835294 0 0 0 0.55 0"/>
<feBlend mode="normal" in2="BackgroundImageFix" result="effect1_dropShadow_1660_4777"/>
<feBlend mode="normal" in="SourceGraphic" in2="effect1_dropShadow_1660_4777" result="shape"/>
</filter>
<filter id="filter8_d_1660_4777" x="419.072" y="261.892" width="268.658" height="289.781" filterUnits="userSpaceOnUse" color-interpolation-filters="sRGB">
<feFlood flood-opacity="0" result="BackgroundImageFix"/>
<feColorMatrix in="SourceAlpha" type="matrix" values="0 0 0 0 0 0 0 0 0 0 0 0 0 0 0 0 0 0 127 0" result="hardAlpha"/>
<feOffset dx="3.06081" dy="3.06081"/>
<feGaussianBlur stdDeviation="16.8345"/>
<feComposite in2="hardAlpha" operator="out"/>
<feColorMatrix type="matrix" values="0 0 0 0 0.0745098 0 0 0 0 0.619608 0 0 0 0 0.835294 0 0 0 0.55 0"/>
<feBlend mode="normal" in2="BackgroundImageFix" result="effect1_dropShadow_1660_4777"/>
<feBlend mode="normal" in="SourceGraphic" in2="effect1_dropShadow_1660_4777" result="shape"/>
</filter>
<linearGradient id="paint0_linear_1660_4777" x1="933.53" y1="299.717" x2="910.726" y2="185.731" gradientUnits="userSpaceOnUse">
<stop stop-color="white" stop-opacity="0"/>
<stop offset="1" stop-color="white" stop-opacity="0.1"/>
</linearGradient>
<linearGradient id="paint1_linear_1660_4777" x1="916.087" y1="214.717" x2="893.933" y2="100.465" gradientUnits="userSpaceOnUse">
<stop stop-color="white" stop-opacity="0"/>
<stop offset="1" stop-color="white" stop-opacity="0.1"/>
</linearGradient>
<linearGradient id="paint2_linear_1660_4777" x1="804.617" y1="133.717" x2="777.165" y2="21.9096" gradientUnits="userSpaceOnUse">
<stop stop-color="white" stop-opacity="0"/>
<stop offset="1" stop-color="white" stop-opacity="0.1"/>
</linearGradient>
<linearGradient id="paint3_linear_1660_4777" x1="706.304" y1="67.7171" x2="680.493" y2="-44.9159" gradientUnits="userSpaceOnUse">
<stop stop-color="white" stop-opacity="0"/>
<stop offset="1" stop-color="white" stop-opacity="0.1"/>
</linearGradient>
<linearGradient id="paint4_linear_1660_4777" x1="427.417" y1="74.7171" x2="403.198" y2="-38.6569" gradientUnits="userSpaceOnUse">
<stop stop-color="white" stop-opacity="0"/>
<stop offset="1" stop-color="white" stop-opacity="0.1"/>
</linearGradient>
<linearGradient id="paint5_linear_1660_4777" x1="280.322" y1="193.717" x2="253.488" y2="81.5908" gradientUnits="userSpaceOnUse">
<stop stop-color="white" stop-opacity="0"/>
<stop offset="1" stop-color="white" stop-opacity="0.1"/>
</linearGradient>
<linearGradient id="paint6_linear_1660_4777" x1="263.826" y1="412.717" x2="240.568" y2="298.923" gradientUnits="userSpaceOnUse">
<stop stop-color="white" stop-opacity="0"/>
<stop offset="1" stop-color="white" stop-opacity="0.1"/>
</linearGradient>
<linearGradient id="paint7_linear_1660_4777" x1="441.922" y1="592.717" x2="420.678" y2="478.107" gradientUnits="userSpaceOnUse">
<stop stop-color="white" stop-opacity="0"/>
<stop offset="1" stop-color="white" stop-opacity="0.1"/>
</linearGradient>
<linearGradient id="paint8_linear_1660_4777" x1="930.887" y1="499.717" x2="910.925" y2="384.631" gradientUnits="userSpaceOnUse">
<stop stop-color="white" stop-opacity="0"/>
<stop offset="1" stop-color="white" stop-opacity="0.1"/>
</linearGradient>
</defs>
</svg>
